<svg xmlns="http://www.w3.org/2000/svg" xmlns:xlink="http://www.w3.org/1999/xlink" contentStyleType="text/css" data-diagram-type="EBNF" height="1256px" preserveAspectRatio="none" style="width:624px;height:1256px;background:#FFFFFF;" version="1.1" viewBox="0 0 624 1256" width="624px" zoomAndPan="magnify"><defs/><g><text fill="#000000" font-family="sans-serif" font-size="14" font-weight="bold" lengthAdjust="spacing" textLength="30.9259" x="10" y="24.9659">case</text><line style="stroke:#181818;stroke-width:1.5;" x1="40" x2="40" y1="69.6019" y2="69.6019"/><rect fill="transparent" height="29.0679" style="stroke:#181818;stroke-width:0.5;" width="39.1759" x="40" y="55.0679"/><text fill="#000000" font-family="sans-serif" font-size="14" lengthAdjust="spacing" textLength="29.1759" x="45" y="75.0339">case</text><line style="stroke:#181818;stroke-width:1.5;" x1="79.1759" x2="99.1759" y1="69.6019" y2="69.6019"/><rect fill="#F1F1F1" height="29.0679" rx="5" ry="5" style="stroke:#181818;stroke-width:1.5;" width="69.5418" x="99.1759" y="55.0679"/><text fill="#000000" font-family="sans-serif" font-size="14" lengthAdjust="spacing" textLength="59.5418" x="104.1759" y="75.0339">identifier</text><line style="stroke:#181818;stroke-width:1.5;" x1="168.7177" x2="188.7177" y1="69.6019" y2="69.6019"/><rect fill="transparent" height="29.0679" style="stroke:#181818;stroke-width:0.5;" width="15.32" x="188.7177" y="55.0679"/><text fill="#000000" font-family="sans-serif" font-size="14" lengthAdjust="spacing" textLength="5.32" x="193.7177" y="75.0339">{</text><line style="stroke:#181818;stroke-width:1.5;" x1="204.0376" x2="224.0376" y1="69.6019" y2="69.6019"/><path d="M232.0376,61.6019 C232.0376,67.6019 230.0376,69.6019 224.0376,69.6019 " fill="transparent" style="stroke:#181818;stroke-width:1.5;"/><line style="stroke:#181818;stroke-width:1.5;" x1="232.0376" x2="232.0376" y1="52.0679" y2="61.6019"/><path d="M232.0376,52.0679 C232.0376,46.0679 234.0376,44.0679 240.0376,44.0679 " fill="transparent" style="stroke:#181818;stroke-width:1.5;"/><line style="stroke:#181818;stroke-width:1.5;" x1="240.0376" x2="283.9195" y1="44.0679" y2="44.0679"/><path d="M255.5904,44.0679 L255.5904,41.0679 L261.5904,44.0679 L255.5904,47.0679 L255.5904,44.0679 " fill="#181818" style="stroke:#181818;stroke-width:1.5;"/><path d="M291.9195,61.6019 C291.9195,67.6019 293.9195,69.6019 299.9195,69.6019 " fill="transparent" style="stroke:#181818;stroke-width:1.5;"/><line style="stroke:#181818;stroke-width:1.5;" x1="291.9195" x2="291.9195" y1="52.0679" y2="61.6019"/><path d="M283.9195,44.0679 C289.9195,44.0679 291.9195,46.0679 291.9195,52.0679 " fill="transparent" style="stroke:#181818;stroke-width:1.5;"/><line style="stroke:#181818;stroke-width:1.5;" x1="224.0376" x2="239.0376" y1="69.6019" y2="69.6019"/><line style="stroke:#181818;stroke-width:1.5;" x1="284.9195" x2="299.9195" y1="69.6019" y2="69.6019"/><rect fill="#F1F1F1" height="29.0679" rx="5" ry="5" style="stroke:#181818;stroke-width:1.5;" width="45.8819" x="239.0376" y="55.0679"/><text fill="#000000" font-family="sans-serif" font-size="14" lengthAdjust="spacing" textLength="35.8819" x="244.0376" y="75.0339">given</text><line style="stroke:#181818;stroke-width:1.5;" x1="299.9195" x2="319.9195" y1="69.6019" y2="69.6019"/><path d="M327.9195,61.6019 C327.9195,67.6019 325.9195,69.6019 319.9195,69.6019 " fill="transparent" style="stroke:#181818;stroke-width:1.5;"/><line style="stroke:#181818;stroke-width:1.5;" x1="327.9195" x2="327.9195" y1="52.0679" y2="61.6019"/><path d="M327.9195,52.0679 C327.9195,46.0679 329.9195,44.0679 335.9195,44.0679 " fill="transparent" style="stroke:#181818;stroke-width:1.5;"/><line style="stroke:#181818;stroke-width:1.5;" x1="335.9195" x2="402.4113" y1="44.0679" y2="44.0679"/><path d="M360.5162,44.0679 L360.5162,41.0679 L366.5162,44.0679 L360.5162,47.0679 L360.5162,44.0679 " fill="#181818" style="stroke:#181818;stroke-width:1.5;"/><path d="M410.4113,61.6019 C410.4113,67.6019 412.4113,69.6019 418.4113,69.6019 " fill="transparent" style="stroke:#181818;stroke-width:1.5;"/><line style="stroke:#181818;stroke-width:1.5;" x1="410.4113" x2="410.4113" y1="52.0679" y2="61.6019"/><path d="M402.4113,44.0679 C408.4113,44.0679 410.4113,46.0679 410.4113,52.0679 " fill="transparent" style="stroke:#181818;stroke-width:1.5;"/><line style="stroke:#181818;stroke-width:1.5;" x1="319.9195" x2="334.9195" y1="69.6019" y2="69.6019"/><line style="stroke:#181818;stroke-width:1.5;" x1="403.4113" x2="418.4113" y1="69.6019" y2="69.6019"/><rect fill="#F1F1F1" height="29.0679" rx="5" ry="5" style="stroke:#181818;stroke-width:1.5;" width="68.4918" x="334.9195" y="55.0679"/><text fill="#000000" font-family="sans-serif" font-size="14" lengthAdjust="spacing" textLength="58.4918" x="339.9195" y="75.0339">compute</text><line style="stroke:#181818;stroke-width:1.5;" x1="418.4113" x2="438.4113" y1="69.6019" y2="69.6019"/><rect fill="#F1F1F1" height="29.0679" rx="5" ry="5" style="stroke:#181818;stroke-width:1.5;" width="47.4638" x="438.4113" y="55.0679"/><text fill="#000000" font-family="sans-serif" font-size="14" lengthAdjust="spacing" textLength="37.4638" x="443.4113" y="75.0339">check</text><line style="stroke:#181818;stroke-width:1.5;" x1="485.8751" x2="505.8751" y1="69.6019" y2="69.6019"/><rect fill="transparent" height="29.0679" style="stroke:#181818;stroke-width:0.5;" width="15.32" x="505.8751" y="55.0679"/><text fill="#000000" font-family="sans-serif" font-size="14" lengthAdjust="spacing" textLength="5.32" x="510.8751" y="75.0339">}</text><ellipse cx="14" cy="69.6019" fill="transparent" rx="4" ry="4" style="stroke:#181818;stroke-width:2;"/><ellipse cx="551.1951" cy="69.6019" fill="#181818" rx="4" ry="4" style="stroke:#181818;stroke-width:1;"/><line style="stroke:#181818;stroke-width:1.5;" x1="18" x2="40" y1="69.6019" y2="69.6019"/><line style="stroke:#181818;stroke-width:1.5;" x1="521.1951" x2="547.1951" y1="69.6019" y2="69.6019"/><path d="M532.1951,69.6019 L532.1951,66.6019 L538.1951,69.6019 L532.1951,72.6019 L532.1951,69.6019 " fill="#181818" style="stroke:#181818;stroke-width:1.5;"/><text fill="#000000" font-family="sans-serif" font-size="14" font-weight="bold" lengthAdjust="spacing" textLength="38.0694" x="10" y="114.1018">given</text><line style="stroke:#181818;stroke-width:1.5;" x1="40" x2="40" y1="142.7377" y2="142.7377"/><rect fill="transparent" height="29.0679" style="stroke:#181818;stroke-width:0.5;" width="45.8819" x="40" y="128.2038"/><text fill="#000000" font-family="sans-serif" font-size="14" lengthAdjust="spacing" textLength="35.8819" x="45" y="148.1697">given</text><line style="stroke:#181818;stroke-width:1.5;" x1="85.8819" x2="105.8819" y1="142.7377" y2="142.7377"/><rect fill="transparent" height="29.0679" style="stroke:#181818;stroke-width:0.5;" width="15.32" x="105.8819" y="128.2038"/><text fill="#000000" font-family="sans-serif" font-size="14" lengthAdjust="spacing" textLength="5.32" x="110.8819" y="148.1697">{</text><line style="stroke:#181818;stroke-width:1.5;" x1="121.2018" x2="141.2018" y1="142.7377" y2="142.7377"/><rect fill="#F1F1F1" height="29.0679" rx="5" ry="5" style="stroke:#181818;stroke-width:1.5;" width="93.5377" x="141.2018" y="128.2038"/><text fill="#000000" font-family="sans-serif" font-size="14" lengthAdjust="spacing" textLength="83.5377" x="146.2018" y="148.1697">assignments</text><line style="stroke:#181818;stroke-width:1.5;" x1="234.7395" x2="254.7395" y1="142.7377" y2="142.7377"/><rect fill="transparent" height="29.0679" style="stroke:#181818;stroke-width:0.5;" width="15.32" x="254.7395" y="128.2038"/><text fill="#000000" font-family="sans-serif" font-size="14" lengthAdjust="spacing" textLength="5.32" x="259.7395" y="148.1697">}</text><ellipse cx="14" cy="142.7377" fill="transparent" rx="4" ry="4" style="stroke:#181818;stroke-width:2;"/><ellipse cx="300.0595" cy="142.7377" fill="#181818" rx="4" ry="4" style="stroke:#181818;stroke-width:1;"/><line style="stroke:#181818;stroke-width:1.5;" x1="18" x2="40" y1="142.7377" y2="142.7377"/><line style="stroke:#181818;stroke-width:1.5;" x1="270.0595" x2="296.0595" y1="142.7377" y2="142.7377"/><path d="M281.0595,142.7377 L281.0595,139.7377 L287.0595,142.7377 L281.0595,145.7377 L281.0595,142.7377 " fill="#181818" style="stroke:#181818;stroke-width:1.5;"/><text fill="#000000" font-family="sans-serif" font-size="14" font-weight="bold" lengthAdjust="spacing" textLength="88.3502" x="10" y="187.2376">assignments</text><path d="M48,235.8735 C48,241.8735 46,243.8735 40,243.8735 " fill="transparent" style="stroke:#181818;stroke-width:1.5;"/><line style="stroke:#181818;stroke-width:1.5;" x1="48" x2="48" y1="214.3396" y2="235.8735"/><path d="M48,214.3396 C48,208.3396 50,206.3396 56,206.3396 " fill="transparent" style="stroke:#181818;stroke-width:1.5;"/><line style="stroke:#181818;stroke-width:1.5;" x1="56" x2="170.8317" y1="206.3396" y2="206.3396"/><path d="M99.9327,206.3396 L99.9327,203.3396 L105.9327,206.3396 L99.9327,209.3396 L99.9327,206.3396 " fill="#181818" style="stroke:#181818;stroke-width:1.5;"/><path d="M178.8317,235.8735 C178.8317,241.8735 180.8317,243.8735 186.8317,243.8735 " fill="transparent" style="stroke:#181818;stroke-width:1.5;"/><line style="stroke:#181818;stroke-width:1.5;" x1="178.8317" x2="178.8317" y1="214.3396" y2="235.8735"/><path d="M170.8317,206.3396 C176.8317,206.3396 178.8317,208.3396 178.8317,214.3396 " fill="transparent" style="stroke:#181818;stroke-width:1.5;"/><line style="stroke:#181818;stroke-width:1.5;" x1="40" x2="55" y1="243.8735" y2="243.8735"/><line style="stroke:#181818;stroke-width:1.5;" x1="171.8317" x2="186.8317" y1="243.8735" y2="243.8735"/><path d="M63,235.8735 C63,241.8735 65,243.8735 71,243.8735 " fill="transparent" style="stroke:#181818;stroke-width:1.5;"/><line style="stroke:#181818;stroke-width:1.5;" x1="63" x2="63" y1="230.3396" y2="235.8735"/><path d="M63,230.3396 C63,224.3396 65,222.3396 71,222.3396 " fill="transparent" style="stroke:#181818;stroke-width:1.5;"/><line style="stroke:#181818;stroke-width:1.5;" x1="70" x2="156.8317" y1="222.3396" y2="222.3396"/><path d="M120.099,222.3396 L120.099,219.3396 L114.099,222.3396 L120.099,225.3396 L120.099,222.3396 " fill="#181818" style="stroke:#181818;stroke-width:1.5;"/><path d="M163.8317,235.8735 C163.8317,241.8735 161.8317,243.8735 155.8317,243.8735 " fill="transparent" style="stroke:#181818;stroke-width:1.5;"/><line style="stroke:#181818;stroke-width:1.5;" x1="163.8317" x2="163.8317" y1="230.3396" y2="235.8735"/><path d="M155.8317,222.3396 C161.8317,222.3396 163.8317,224.3396 163.8317,230.3396 " fill="transparent" style="stroke:#181818;stroke-width:1.5;"/><line style="stroke:#181818;stroke-width:1.5;" x1="55" x2="70" y1="243.8735" y2="243.8735"/><line style="stroke:#181818;stroke-width:1.5;" x1="156.8317" x2="171.8317" y1="243.8735" y2="243.8735"/><rect fill="#F1F1F1" height="29.0679" rx="5" ry="5" style="stroke:#181818;stroke-width:1.5;" width="86.8317" x="70" y="229.3396"/><text fill="#000000" font-family="sans-serif" font-size="14" lengthAdjust="spacing" textLength="76.8317" x="75" y="249.3055">assignment</text><ellipse cx="14" cy="243.8735" fill="transparent" rx="4" ry="4" style="stroke:#181818;stroke-width:2;"/><ellipse cx="216.8317" cy="243.8735" fill="#181818" rx="4" ry="4" style="stroke:#181818;stroke-width:1;"/><line style="stroke:#181818;stroke-width:1.5;" x1="18" x2="40" y1="243.8735" y2="243.8735"/><line style="stroke:#181818;stroke-width:1.5;" x1="186.8317" x2="212.8317" y1="243.8735" y2="243.8735"/><path d="M197.8317,243.8735 L197.8317,240.8735 L203.8317,243.8735 L197.8317,246.8735 L197.8317,243.8735 " fill="#181818" style="stroke:#181818;stroke-width:1.5;"/><text fill="#000000" font-family="sans-serif" font-size="14" font-weight="bold" lengthAdjust="spacing" textLength="81.2067" x="10" y="288.3734">assignment</text><rect fill="#F1F1F1" height="29.0679" rx="5" ry="5" style="stroke:#181818;stroke-width:1.5;" width="179.8053" x="64" y="302.4754"/><text fill="#000000" font-family="sans-serif" font-size="14" lengthAdjust="spacing" textLength="169.8053" x="69" y="322.4414">non_mutable_assignment</text><line style="stroke:#181818;stroke-width:1.5;" x1="40" x2="64" y1="317.0094" y2="317.0094"/><line style="stroke:#181818;stroke-width:1.5;" x1="243.8053" x2="267.8053" y1="317.0094" y2="317.0094"/><rect fill="#F1F1F1" height="29.0679" rx="5" ry="5" style="stroke:#181818;stroke-width:1.5;" width="147.8155" x="64" y="341.5433"/><text fill="#000000" font-family="sans-serif" font-size="14" lengthAdjust="spacing" textLength="137.8155" x="69" y="361.5093">mutable_assignment</text><line style="stroke:#181818;stroke-width:1.5;" x1="211.8155" x2="243.8053" y1="356.0773" y2="356.0773"/><path d="M225.8104,356.0773 L225.8104,353.0773 L231.8104,356.0773 L225.8104,359.0773 L225.8104,356.0773 " fill="#181818" style="stroke:#181818;stroke-width:1.5;"/><path d="M52,344.0773 C52,353.0773 55,356.0773 64,356.0773 " fill="transparent" style="stroke:#181818;stroke-width:1.5;"/><line style="stroke:#181818;stroke-width:1.5;" x1="52" x2="52" y1="329.0094" y2="344.0773"/><path d="M40,317.0094 C49,317.0094 52,320.0094 52,329.0094 " fill="transparent" style="stroke:#181818;stroke-width:1.5;"/><path d="M255.8053,344.0773 C255.8053,353.0773 252.8053,356.0773 243.8053,356.0773 " fill="transparent" style="stroke:#181818;stroke-width:1.5;"/><line style="stroke:#181818;stroke-width:1.5;" x1="255.8053" x2="255.8053" y1="329.0094" y2="344.0773"/><path d="M255.8053,329.0094 C255.8053,320.0094 258.8053,317.0094 267.8053,317.0094 " fill="transparent" style="stroke:#181818;stroke-width:1.5;"/><ellipse cx="14" cy="317.0094" fill="transparent" rx="4" ry="4" style="stroke:#181818;stroke-width:2;"/><ellipse cx="297.8053" cy="317.0094" fill="#181818" rx="4" ry="4" style="stroke:#181818;stroke-width:1;"/><line style="stroke:#181818;stroke-width:1.5;" x1="18" x2="40" y1="317.0094" y2="317.0094"/><line style="stroke:#181818;stroke-width:1.5;" x1="267.8053" x2="293.8053" y1="317.0094" y2="317.0094"/><path d="M278.8053,317.0094 L278.8053,314.0094 L284.8053,317.0094 L278.8053,320.0094 L278.8053,317.0094 " fill="#181818" style="stroke:#181818;stroke-width:1.5;"/><text fill="#000000" font-family="sans-serif" font-size="14" font-weight="bold" lengthAdjust="spacing" textLength="179.4303" x="10" y="400.5772">non_mutable_assignment</text><line style="stroke:#181818;stroke-width:1.5;" x1="40" x2="40" y1="429.2131" y2="429.2131"/><rect fill="#F1F1F1" height="29.0679" rx="5" ry="5" style="stroke:#181818;stroke-width:1.5;" width="69.5418" x="40" y="414.6792"/><text fill="#000000" font-family="sans-serif" font-size="14" lengthAdjust="spacing" textLength="59.5418" x="45" y="434.6451">identifier</text><line style="stroke:#181818;stroke-width:1.5;" x1="109.5418" x2="129.5418" y1="429.2131" y2="429.2131"/><rect fill="transparent" height="29.0679" style="stroke:#181818;stroke-width:0.5;" width="18.008" x="129.5418" y="414.6792"/><text fill="#000000" font-family="sans-serif" font-size="14" lengthAdjust="spacing" textLength="8.008" x="134.5418" y="434.6451">=</text><line style="stroke:#181818;stroke-width:1.5;" x1="147.5497" x2="167.5497" y1="429.2131" y2="429.2131"/><rect fill="#F1F1F1" height="29.0679" rx="5" ry="5" style="stroke:#181818;stroke-width:1.5;" width="81.7357" x="167.5497" y="414.6792"/><text fill="#000000" font-family="sans-serif" font-size="14" lengthAdjust="spacing" textLength="71.7357" x="172.5497" y="434.6451">expression</text><ellipse cx="14" cy="429.2131" fill="transparent" rx="4" ry="4" style="stroke:#181818;stroke-width:2;"/><ellipse cx="279.2855" cy="429.2131" fill="#181818" rx="4" ry="4" style="stroke:#181818;stroke-width:1;"/><line style="stroke:#181818;stroke-width:1.5;" x1="18" x2="40" y1="429.2131" y2="429.2131"/><line style="stroke:#181818;stroke-width:1.5;" x1="249.2855" x2="275.2855" y1="429.2131" y2="429.2131"/><path d="M260.2855,429.2131 L260.2855,426.2131 L266.2855,429.2131 L260.2855,432.2131 L260.2855,429.2131 " fill="#181818" style="stroke:#181818;stroke-width:1.5;"/><text fill="#000000" font-family="sans-serif" font-size="14" font-weight="bold" lengthAdjust="spacing" textLength="145.6905" x="10" y="473.713">mutable_assignment</text><line style="stroke:#181818;stroke-width:1.5;" x1="40" x2="40" y1="502.349" y2="502.349"/><rect fill="transparent" height="29.0679" style="stroke:#181818;stroke-width:0.5;" width="36.7959" x="40" y="487.815"/><text fill="#000000" font-family="sans-serif" font-size="14" lengthAdjust="spacing" textLength="26.7959" x="45" y="507.7809">mut</text><line style="stroke:#181818;stroke-width:1.5;" x1="76.7959" x2="96.7959" y1="502.349" y2="502.349"/><rect fill="#F1F1F1" height="29.0679" rx="5" ry="5" style="stroke:#181818;stroke-width:1.5;" width="179.8053" x="96.7959" y="487.815"/><text fill="#000000" font-family="sans-serif" font-size="14" lengthAdjust="spacing" textLength="169.8053" x="101.7959" y="507.7809">non_mutable_assignment</text><ellipse cx="14" cy="502.349" fill="transparent" rx="4" ry="4" style="stroke:#181818;stroke-width:2;"/><ellipse cx="306.6012" cy="502.349" fill="#181818" rx="4" ry="4" style="stroke:#181818;stroke-width:1;"/><line style="stroke:#181818;stroke-width:1.5;" x1="18" x2="40" y1="502.349" y2="502.349"/><line style="stroke:#181818;stroke-width:1.5;" x1="276.6012" x2="302.6012" y1="502.349" y2="502.349"/><path d="M287.6012,502.349 L287.6012,499.349 L293.6012,502.349 L287.6012,505.349 L287.6012,502.349 " fill="#181818" style="stroke:#181818;stroke-width:1.5;"/><text fill="#000000" font-family="sans-serif" font-size="14" font-weight="bold" lengthAdjust="spacing" textLength="61.5543" x="10" y="546.8489">compute</text><line style="stroke:#181818;stroke-width:1.5;" x1="40" x2="40" y1="575.4848" y2="575.4848"/><rect fill="transparent" height="29.0679" style="stroke:#181818;stroke-width:0.5;" width="27.0799" x="40" y="560.9508"/><text fill="#000000" font-family="sans-serif" font-size="14" lengthAdjust="spacing" textLength="17.0799" x="45" y="580.9168">do</text><line style="stroke:#181818;stroke-width:1.5;" x1="67.0799" x2="87.0799" y1="575.4848" y2="575.4848"/><rect fill="transparent" height="29.0679" style="stroke:#181818;stroke-width:0.5;" width="15.32" x="87.0799" y="560.9508"/><text fill="#000000" font-family="sans-serif" font-size="14" lengthAdjust="spacing" textLength="5.32" x="92.0799" y="580.9168">{</text><line style="stroke:#181818;stroke-width:1.5;" x1="102.3999" x2="122.3999" y1="575.4848" y2="575.4848"/><rect fill="#F1F1F1" height="29.0679" rx="5" ry="5" style="stroke:#181818;stroke-width:1.5;" width="74.1058" x="122.3999" y="560.9508"/><text fill="#000000" font-family="sans-serif" font-size="14" lengthAdjust="spacing" textLength="64.1058" x="127.3999" y="580.9168">rust_code</text><line style="stroke:#181818;stroke-width:1.5;" x1="196.5057" x2="216.5057" y1="575.4848" y2="575.4848"/><rect fill="transparent" height="29.0679" style="stroke:#181818;stroke-width:0.5;" width="15.32" x="216.5057" y="560.9508"/><text fill="#000000" font-family="sans-serif" font-size="14" lengthAdjust="spacing" textLength="5.32" x="221.5057" y="580.9168">}</text><ellipse cx="14" cy="575.4848" fill="transparent" rx="4" ry="4" style="stroke:#181818;stroke-width:2;"/><ellipse cx="261.8257" cy="575.4848" fill="#181818" rx="4" ry="4" style="stroke:#181818;stroke-width:1;"/><line style="stroke:#181818;stroke-width:1.5;" x1="18" x2="40" y1="575.4848" y2="575.4848"/><line style="stroke:#181818;stroke-width:1.5;" x1="231.8257" x2="257.8257" y1="575.4848" y2="575.4848"/><path d="M242.8257,575.4848 L242.8257,572.4848 L248.8257,575.4848 L242.8257,578.4848 L242.8257,575.4848 " fill="#181818" style="stroke:#181818;stroke-width:1.5;"/><text fill="#000000" font-family="sans-serif" font-size="14" font-weight="bold" lengthAdjust="spacing" textLength="39.6513" x="10" y="619.9847">check</text><line style="stroke:#181818;stroke-width:1.5;" x1="40" x2="40" y1="648.6206" y2="648.6206"/><rect fill="transparent" height="29.0679" style="stroke:#181818;stroke-width:0.5;" width="47.4638" x="40" y="634.0867"/><text fill="#000000" font-family="sans-serif" font-size="14" lengthAdjust="spacing" textLength="37.4638" x="45" y="654.0526">check</text><line style="stroke:#181818;stroke-width:1.5;" x1="87.4638" x2="107.4638" y1="648.6206" y2="648.6206"/><rect fill="transparent" height="29.0679" style="stroke:#181818;stroke-width:0.5;" width="15.32" x="107.4638" y="634.0867"/><text fill="#000000" font-family="sans-serif" font-size="14" lengthAdjust="spacing" textLength="5.32" x="112.4638" y="654.0526">{</text><line style="stroke:#181818;stroke-width:1.5;" x1="122.7838" x2="142.7838" y1="648.6206" y2="648.6206"/><rect fill="#F1F1F1" height="29.0679" rx="5" ry="5" style="stroke:#181818;stroke-width:1.5;" width="78.5577" x="142.7838" y="634.0867"/><text fill="#000000" font-family="sans-serif" font-size="14" lengthAdjust="spacing" textLength="68.5577" x="147.7838" y="654.0526">conditions</text><line style="stroke:#181818;stroke-width:1.5;" x1="221.3416" x2="241.3416" y1="648.6206" y2="648.6206"/><rect fill="transparent" height="29.0679" style="stroke:#181818;stroke-width:0.5;" width="15.32" x="241.3416" y="634.0867"/><text fill="#000000" font-family="sans-serif" font-size="14" lengthAdjust="spacing" textLength="5.32" x="246.3416" y="654.0526">}</text><ellipse cx="14" cy="648.6206" fill="transparent" rx="4" ry="4" style="stroke:#181818;stroke-width:2;"/><ellipse cx="286.6615" cy="648.6206" fill="#181818" rx="4" ry="4" style="stroke:#181818;stroke-width:1;"/><line style="stroke:#181818;stroke-width:1.5;" x1="18" x2="40" y1="648.6206" y2="648.6206"/><line style="stroke:#181818;stroke-width:1.5;" x1="256.6615" x2="282.6615" y1="648.6206" y2="648.6206"/><path d="M267.6615,648.6206 L267.6615,645.6206 L273.6615,648.6206 L267.6615,651.6206 L267.6615,648.6206 " fill="#181818" style="stroke:#181818;stroke-width:1.5;"/><text fill="#000000" font-family="sans-serif" font-size="14" font-weight="bold" lengthAdjust="spacing" textLength="72.9327" x="10" y="693.1205">conditions</text><line style="stroke:#181818;stroke-width:1.5;" x1="64" x2="64" y1="721.7565" y2="721.7565"/><rect fill="#F1F1F1" height="29.0679" rx="5" ry="5" style="stroke:#181818;stroke-width:1.5;" width="71.8518" x="64" y="707.2225"/><text fill="#000000" font-family="sans-serif" font-size="14" lengthAdjust="spacing" textLength="61.8518" x="69" y="727.1884">condition</text><line style="stroke:#181818;stroke-width:1.5;" x1="135.8518" x2="155.8518" y1="721.7565" y2="721.7565"/><rect fill="transparent" height="29.0679" style="stroke:#181818;stroke-width:0.5;" width="24.252" x="179.8518" y="707.2225"/><text fill="#000000" font-family="sans-serif" font-size="14" lengthAdjust="spacing" textLength="14.252" x="184.8518" y="727.1884">or</text><line style="stroke:#181818;stroke-width:1.5;" x1="155.8518" x2="179.8518" y1="721.7565" y2="721.7565"/><line style="stroke:#181818;stroke-width:1.5;" x1="204.1037" x2="238.9677" y1="721.7565" y2="721.7565"/><rect fill="transparent" height="29.0679" style="stroke:#181818;stroke-width:0.5;" width="35.1159" x="179.8518" y="746.2904"/><text fill="#000000" font-family="sans-serif" font-size="14" lengthAdjust="spacing" textLength="25.1159" x="184.8518" y="766.2564">and</text><line style="stroke:#181818;stroke-width:1.5;" x1="214.9677" x2="214.9677" y1="760.8244" y2="760.8244"/><path d="M167.8518,748.8244 C167.8518,757.8244 170.8518,760.8244 179.8518,760.8244 " fill="transparent" style="stroke:#181818;stroke-width:1.5;"/><line style="stroke:#181818;stroke-width:1.5;" x1="167.8518" x2="167.8518" y1="733.7565" y2="748.8244"/><path d="M155.8518,721.7565 C164.8518,721.7565 167.8518,724.7565 167.8518,733.7565 " fill="transparent" style="stroke:#181818;stroke-width:1.5;"/><path d="M226.9677,748.8244 C226.9677,757.8244 223.9677,760.8244 214.9677,760.8244 " fill="transparent" style="stroke:#181818;stroke-width:1.5;"/><line style="stroke:#181818;stroke-width:1.5;" x1="226.9677" x2="226.9677" y1="733.7565" y2="748.8244"/><path d="M226.9677,733.7565 C226.9677,724.7565 229.9677,721.7565 238.9677,721.7565 " fill="transparent" style="stroke:#181818;stroke-width:1.5;"/><line style="stroke:#181818;stroke-width:1.5;" x1="238.9677" x2="258.9677" y1="721.7565" y2="721.7565"/><rect fill="#F1F1F1" height="29.0679" rx="5" ry="5" style="stroke:#181818;stroke-width:1.5;" width="78.5577" x="258.9677" y="707.2225"/><text fill="#000000" font-family="sans-serif" font-size="14" lengthAdjust="spacing" textLength="68.5577" x="263.9677" y="727.1884">conditions</text><line style="stroke:#181818;stroke-width:1.5;" x1="40" x2="64" y1="721.7565" y2="721.7565"/><line style="stroke:#181818;stroke-width:1.5;" x1="337.5254" x2="579.847" y1="721.7565" y2="721.7565"/><line style="stroke:#181818;stroke-width:1.5;" x1="64" x2="64" y1="799.8923" y2="799.8923"/><rect fill="transparent" height="29.0679" style="stroke:#181818;stroke-width:0.5;" width="29.0679" x="64" y="785.3583"/><text fill="#000000" font-family="sans-serif" font-size="14" lengthAdjust="spacing" textLength="19.0679" x="69" y="805.3243">for</text><line style="stroke:#181818;stroke-width:1.5;" x1="93.0679" x2="113.0679" y1="799.8923" y2="799.8923"/><rect fill="transparent" height="29.0679" style="stroke:#181818;stroke-width:0.5;" width="33.6459" x="137.0679" y="785.3583"/><text fill="#000000" font-family="sans-serif" font-size="14" lengthAdjust="spacing" textLength="23.6459" x="142.0679" y="805.3243">any</text><line style="stroke:#181818;stroke-width:1.5;" x1="113.0679" x2="137.0679" y1="799.8923" y2="799.8923"/><line style="stroke:#181818;stroke-width:1.5;" x1="170.7138" x2="202.1898" y1="799.8923" y2="799.8923"/><rect fill="transparent" height="29.0679" style="stroke:#181818;stroke-width:0.5;" width="41.1219" x="137.0679" y="824.4263"/><text fill="#000000" font-family="sans-serif" font-size="14" lengthAdjust="spacing" textLength="31.1219" x="142.0679" y="844.3922">each</text><line style="stroke:#181818;stroke-width:1.5;" x1="178.1898" x2="178.1898" y1="838.9602" y2="838.9602"/><path d="M125.0679,826.9602 C125.0679,835.9602 128.0679,838.9602 137.0679,838.9602 " fill="transparent" style="stroke:#181818;stroke-width:1.5;"/><line style="stroke:#181818;stroke-width:1.5;" x1="125.0679" x2="125.0679" y1="811.8923" y2="826.9602"/><path d="M113.0679,799.8923 C122.0679,799.8923 125.0679,802.8923 125.0679,811.8923 " fill="transparent" style="stroke:#181818;stroke-width:1.5;"/><path d="M190.1898,826.9602 C190.1898,835.9602 187.1898,838.9602 178.1898,838.9602 " fill="transparent" style="stroke:#181818;stroke-width:1.5;"/><line style="stroke:#181818;stroke-width:1.5;" x1="190.1898" x2="190.1898" y1="811.8923" y2="826.9602"/><path d="M190.1898,811.8923 C190.1898,802.8923 193.1898,799.8923 202.1898,799.8923 " fill="transparent" style="stroke:#181818;stroke-width:1.5;"/><line style="stroke:#181818;stroke-width:1.5;" x1="202.1898" x2="222.1898" y1="799.8923" y2="799.8923"/><rect fill="#F1F1F1" height="29.0679" rx="5" ry="5" style="stroke:#181818;stroke-width:1.5;" width="69.5418" x="222.1898" y="785.3583"/><text fill="#000000" font-family="sans-serif" font-size="14" lengthAdjust="spacing" textLength="59.5418" x="227.1898" y="805.3243">identifier</text><line style="stroke:#181818;stroke-width:1.5;" x1="291.7316" x2="311.7316" y1="799.8923" y2="799.8923"/><rect fill="transparent" height="29.0679" style="stroke:#181818;stroke-width:0.5;" width="22.2639" x="311.7316" y="785.3583"/><text fill="#000000" font-family="sans-serif" font-size="14" lengthAdjust="spacing" textLength="12.2639" x="316.7316" y="805.3243">in</text><line style="stroke:#181818;stroke-width:1.5;" x1="333.9955" x2="353.9955" y1="799.8923" y2="799.8923"/><rect fill="#F1F1F1" height="29.0679" rx="5" ry="5" style="stroke:#181818;stroke-width:1.5;" width="69.5418" x="353.9955" y="785.3583"/><text fill="#000000" font-family="sans-serif" font-size="14" lengthAdjust="spacing" textLength="59.5418" x="358.9955" y="805.3243">identifier</text><line style="stroke:#181818;stroke-width:1.5;" x1="423.5373" x2="443.5373" y1="799.8923" y2="799.8923"/><rect fill="transparent" height="29.0679" style="stroke:#181818;stroke-width:0.5;" width="13.752" x="443.5373" y="785.3583"/><text fill="#000000" font-family="sans-serif" font-size="14" lengthAdjust="spacing" textLength="3.752" x="448.5373" y="805.3243">,</text><line style="stroke:#181818;stroke-width:1.5;" x1="457.2893" x2="477.2893" y1="799.8923" y2="799.8923"/><rect fill="#F1F1F1" height="29.0679" rx="5" ry="5" style="stroke:#181818;stroke-width:1.5;" width="78.5577" x="477.2893" y="785.3583"/><text fill="#000000" font-family="sans-serif" font-size="14" lengthAdjust="spacing" textLength="68.5577" x="482.2893" y="805.3243">conditions</text><path d="M52,787.8923 C52,796.8923 55,799.8923 64,799.8923 " fill="transparent" style="stroke:#181818;stroke-width:1.5;"/><line style="stroke:#181818;stroke-width:1.5;" x1="555.847" x2="555.847" y1="799.8923" y2="799.8923"/><path d="M567.847,787.8923 C567.847,796.8923 564.847,799.8923 555.847,799.8923 " fill="transparent" style="stroke:#181818;stroke-width:1.5;"/><rect fill="#F1F1F1" height="29.0679" rx="5" ry="5" style="stroke:#181818;stroke-width:1.5;" width="71.8518" x="64" y="863.4942"/><text fill="#000000" font-family="sans-serif" font-size="14" lengthAdjust="spacing" textLength="61.8518" x="69" y="883.4601">condition</text><line style="stroke:#181818;stroke-width:1.5;" x1="135.8518" x2="555.847" y1="878.0281" y2="878.0281"/><path d="M343.8494,878.0281 L343.8494,875.0281 L349.8494,878.0281 L343.8494,881.0281 L343.8494,878.0281 " fill="#181818" style="stroke:#181818;stroke-width:1.5;"/><path d="M52,866.0281 C52,875.0281 55,878.0281 64,878.0281 " fill="transparent" style="stroke:#181818;stroke-width:1.5;"/><line style="stroke:#181818;stroke-width:1.5;" x1="52" x2="52" y1="733.7565" y2="866.0281"/><path d="M40,721.7565 C49,721.7565 52,724.7565 52,733.7565 " fill="transparent" style="stroke:#181818;stroke-width:1.5;"/><path d="M567.847,866.0281 C567.847,875.0281 564.847,878.0281 555.847,878.0281 " fill="transparent" style="stroke:#181818;stroke-width:1.5;"/><line style="stroke:#181818;stroke-width:1.5;" x1="567.847" x2="567.847" y1="733.7565" y2="866.0281"/><path d="M567.847,733.7565 C567.847,724.7565 570.847,721.7565 579.847,721.7565 " fill="transparent" style="stroke:#181818;stroke-width:1.5;"/><ellipse cx="14" cy="721.7565" fill="transparent" rx="4" ry="4" style="stroke:#181818;stroke-width:2;"/><ellipse cx="609.847" cy="721.7565" fill="#181818" rx="4" ry="4" style="stroke:#181818;stroke-width:1;"/><line style="stroke:#181818;stroke-width:1.5;" x1="18" x2="40" y1="721.7565" y2="721.7565"/><line style="stroke:#181818;stroke-width:1.5;" x1="579.847" x2="605.847" y1="721.7565" y2="721.7565"/><path d="M590.847,721.7565 L590.847,718.7565 L596.847,721.7565 L590.847,724.7565 L590.847,721.7565 " fill="#181818" style="stroke:#181818;stroke-width:1.5;"/><text fill="#000000" font-family="sans-serif" font-size="14" font-weight="bold" lengthAdjust="spacing" textLength="65.7893" x="10" y="922.528">condition</text><line style="stroke:#181818;stroke-width:1.5;" x1="40" x2="40" y1="951.164" y2="951.164"/><rect fill="#F1F1F1" height="29.0679" rx="5" ry="5" style="stroke:#181818;stroke-width:1.5;" width="81.7357" x="40" y="936.63"/><text fill="#000000" font-family="sans-serif" font-size="14" lengthAdjust="spacing" textLength="71.7357" x="45" y="956.5959">expression</text><line style="stroke:#181818;stroke-width:1.5;" x1="121.7357" x2="141.7357" y1="951.164" y2="951.164"/><rect fill="#F1F1F1" height="29.0679" rx="5" ry="5" style="stroke:#181818;stroke-width:1.5;" width="57.6278" x="141.7357" y="936.63"/><text fill="#000000" font-family="sans-serif" font-size="14" lengthAdjust="spacing" textLength="47.6278" x="146.7357" y="956.5959">symbol</text><line style="stroke:#181818;stroke-width:1.5;" x1="199.3636" x2="219.3636" y1="951.164" y2="951.164"/><rect fill="#F1F1F1" height="29.0679" rx="5" ry="5" style="stroke:#181818;stroke-width:1.5;" width="81.7357" x="219.3636" y="936.63"/><text fill="#000000" font-family="sans-serif" font-size="14" lengthAdjust="spacing" textLength="71.7357" x="224.3636" y="956.5959">expression</text><ellipse cx="14" cy="951.164" fill="transparent" rx="4" ry="4" style="stroke:#181818;stroke-width:2;"/><ellipse cx="331.0993" cy="951.164" fill="#181818" rx="4" ry="4" style="stroke:#181818;stroke-width:1;"/><line style="stroke:#181818;stroke-width:1.5;" x1="18" x2="40" y1="951.164" y2="951.164"/><line style="stroke:#181818;stroke-width:1.5;" x1="301.0993" x2="327.0993" y1="951.164" y2="951.164"/><path d="M312.0993,951.164 L312.0993,948.164 L318.0993,951.164 L312.0993,954.164 L312.0993,951.164 " fill="#181818" style="stroke:#181818;stroke-width:1.5;"/><text fill="#000000" font-family="sans-serif" font-size="14" font-weight="bold" lengthAdjust="spacing" textLength="50.2528" x="10" y="995.6639">symbol</text><rect fill="transparent" height="29.0679" style="stroke:#181818;stroke-width:0.5;" width="46.6239" x="64" y="1009.7658"/><text fill="#000000" font-family="sans-serif" font-size="14" lengthAdjust="spacing" textLength="36.6239" x="69" y="1029.7318">equal</text><line style="stroke:#181818;stroke-width:1.5;" x1="40" x2="64" y1="1024.2998" y2="1024.2998"/><line style="stroke:#181818;stroke-width:1.5;" x1="110.6239" x2="272.2135" y1="1024.2998" y2="1024.2998"/><rect fill="#F1F1F1" height="29.0679" rx="5" ry="5" style="stroke:#181818;stroke-width:1.5;" width="99.6977" x="64" y="1048.8338"/><text fill="#000000" font-family="sans-serif" font-size="14" lengthAdjust="spacing" textLength="89.6977" x="69" y="1068.7997">other_symbol</text><path d="M52,1051.3677 C52,1060.3677 55,1063.3677 64,1063.3677 " fill="transparent" style="stroke:#181818;stroke-width:1.5;"/><line style="stroke:#181818;stroke-width:1.5;" x1="163.6977" x2="248.2135" y1="1063.3677" y2="1063.3677"/><path d="M203.9556,1063.3677 L203.9556,1060.3677 L209.9556,1063.3677 L203.9556,1066.3677 L203.9556,1063.3677 " fill="#181818" style="stroke:#181818;stroke-width:1.5;"/><path d="M260.2135,1051.3677 C260.2135,1060.3677 257.2135,1063.3677 248.2135,1063.3677 " fill="transparent" style="stroke:#181818;stroke-width:1.5;"/><line style="stroke:#181818;stroke-width:1.5;" x1="64" x2="64" y1="1102.4356" y2="1102.4356"/><rect fill="transparent" height="29.0679" style="stroke:#181818;stroke-width:0.5;" width="64.5158" x="64" y="1087.9017"/><text fill="#000000" font-family="sans-serif" font-size="14" lengthAdjust="spacing" textLength="54.5158" x="69" y="1107.8676">equal or</text><line style="stroke:#181818;stroke-width:1.5;" x1="128.5158" x2="148.5158" y1="1102.4356" y2="1102.4356"/><rect fill="#F1F1F1" height="29.0679" rx="5" ry="5" style="stroke:#181818;stroke-width:1.5;" width="99.6977" x="148.5158" y="1087.9017"/><text fill="#000000" font-family="sans-serif" font-size="14" lengthAdjust="spacing" textLength="89.6977" x="153.5158" y="1107.8676">other_symbol</text><line style="stroke:#181818;stroke-width:1.5;" x1="248.2135" x2="248.2135" y1="1102.4356" y2="1102.4356"/><path d="M52,1090.4356 C52,1099.4356 55,1102.4356 64,1102.4356 " fill="transparent" style="stroke:#181818;stroke-width:1.5;"/><line style="stroke:#181818;stroke-width:1.5;" x1="52" x2="52" y1="1036.2998" y2="1090.4356"/><path d="M40,1024.2998 C49,1024.2998 52,1027.2998 52,1036.2998 " fill="transparent" style="stroke:#181818;stroke-width:1.5;"/><path d="M260.2135,1090.4356 C260.2135,1099.4356 257.2135,1102.4356 248.2135,1102.4356 " fill="transparent" style="stroke:#181818;stroke-width:1.5;"/><line style="stroke:#181818;stroke-width:1.5;" x1="260.2135" x2="260.2135" y1="1036.2998" y2="1090.4356"/><path d="M260.2135,1036.2998 C260.2135,1027.2998 263.2135,1024.2998 272.2135,1024.2998 " fill="transparent" style="stroke:#181818;stroke-width:1.5;"/><ellipse cx="14" cy="1024.2998" fill="transparent" rx="4" ry="4" style="stroke:#181818;stroke-width:2;"/><ellipse cx="302.2135" cy="1024.2998" fill="#181818" rx="4" ry="4" style="stroke:#181818;stroke-width:1;"/><line style="stroke:#181818;stroke-width:1.5;" x1="18" x2="40" y1="1024.2998" y2="1024.2998"/><line style="stroke:#181818;stroke-width:1.5;" x1="272.2135" x2="298.2135" y1="1024.2998" y2="1024.2998"/><path d="M283.2135,1024.2998 L283.2135,1021.2998 L289.2135,1024.2998 L283.2135,1027.2998 L283.2135,1024.2998 " fill="#181818" style="stroke:#181818;stroke-width:1.5;"/><text fill="#000000" font-family="sans-serif" font-size="14" font-weight="bold" lengthAdjust="spacing" textLength="94.9477" x="10" y="1146.9355">other_symbol</text><rect fill="transparent" height="29.0679" style="stroke:#181818;stroke-width:0.5;" width="68.7718" x="64" y="1161.0375"/><text fill="#000000" font-family="sans-serif" font-size="14" lengthAdjust="spacing" textLength="58.7718" x="69" y="1181.0034">less than</text><line style="stroke:#181818;stroke-width:1.5;" x1="40" x2="64" y1="1175.5715" y2="1175.5715"/><line style="stroke:#181818;stroke-width:1.5;" x1="132.7718" x2="180.7257" y1="1175.5715" y2="1175.5715"/><rect fill="transparent" height="29.0679" style="stroke:#181818;stroke-width:0.5;" width="92.7257" x="64" y="1200.1054"/><text fill="#000000" font-family="sans-serif" font-size="14" lengthAdjust="spacing" textLength="82.7257" x="69" y="1220.0714">greater than</text><line style="stroke:#181818;stroke-width:1.5;" x1="156.7257" x2="156.7257" y1="1214.6394" y2="1214.6394"/><path d="M52,1202.6394 C52,1211.6394 55,1214.6394 64,1214.6394 " fill="transparent" style="stroke:#181818;stroke-width:1.5;"/><line style="stroke:#181818;stroke-width:1.5;" x1="52" x2="52" y1="1187.5715" y2="1202.6394"/><path d="M40,1175.5715 C49,1175.5715 52,1178.5715 52,1187.5715 " fill="transparent" style="stroke:#181818;stroke-width:1.5;"/><path d="M168.7257,1202.6394 C168.7257,1211.6394 165.7257,1214.6394 156.7257,1214.6394 " fill="transparent" style="stroke:#181818;stroke-width:1.5;"/><line style="stroke:#181818;stroke-width:1.5;" x1="168.7257" x2="168.7257" y1="1187.5715" y2="1202.6394"/><path d="M168.7257,1187.5715 C168.7257,1178.5715 171.7257,1175.5715 180.7257,1175.5715 " fill="transparent" style="stroke:#181818;stroke-width:1.5;"/><ellipse cx="14" cy="1175.5715" fill="transparent" rx="4" ry="4" style="stroke:#181818;stroke-width:2;"/><ellipse cx="210.7257" cy="1175.5715" fill="#181818" rx="4" ry="4" style="stroke:#181818;stroke-width:1;"/><line style="stroke:#181818;stroke-width:1.5;" x1="18" x2="40" y1="1175.5715" y2="1175.5715"/><line style="stroke:#181818;stroke-width:1.5;" x1="180.7257" x2="206.7257" y1="1175.5715" y2="1175.5715"/><path d="M191.7257,1175.5715 L191.7257,1172.5715 L197.7257,1175.5715 L191.7257,1178.5715 L191.7257,1175.5715 " fill="#181818" style="stroke:#181818;stroke-width:1.5;"/><!--SRC=[hL9TRnen47pthzZw2IH2IT9yY1CIQf9Meg163SbBLI5pjnnMxzRKPwEY9F-zwmE28McVUWztzipiU7VE_Sefwt1ACv6g2g47Cdnb2tI6vFHCess1V6JWUwwNI3zuaPfouHtoCfrZ-fFvPvc8TvhImcS8jQwzy6MnmpObXsWeVr-_rqmVAQkR4Vt_rrXD1uDw8JTLggfqJYLxLHjTXB3wSRTzZZccoD2az4vD2vn4X83eUOBNYaJyfRAtFrIFsyFV2ukiC9I8Doiaewnxsp4HcoY2C3FRcQslt2Gr6MuchbEgemsBhIerb6d79s-3sG6iVTcqe26DbJofL9H9QCQLUra4oOobeKBHIZv9LEbSDW_-fQR3lzkI__9yOQ8EkS5TSYseLkNK5Fjfhh4mDVxogf0YiZHkZdQoLiJuMWhr3B4c4V4kU1Py3BYv8hdVRksIMrGExPfFejj-MoXozwCXBD66Bk6uVT8vEMjt6cEFC504dGiulkoUddLFp-7gPWo1Reh6vziXLCRR527JbRDwwaCCJJ5GImNVF6TPOXU-Bf06rr-s0DpGKbjJNnKnU1Zj1ESVZZvg1tTekHDu68bhd2bVEAxWUwCfxyBz-DFHfHWgohtAsHj9N1dsjIlcxlu0]--></g></svg>