<svg xmlns="http://www.w3.org/2000/svg" xmlns:xlink="http://www.w3.org/1999/xlink" contentStyleType="text/css" data-diagram-type="EBNF" height="454px" preserveAspectRatio="none" style="width:321px;height:454px;background:#FFFFFF;" version="1.1" viewBox="0 0 321 454" width="321px" zoomAndPan="magnify"><defs/><g><text fill="#000000" font-family="sans-serif" font-size="14" font-weight="bold" lengthAdjust="spacing" textLength="38.0694" x="10" y="24.9659">given</text><line style="stroke:#181818;stroke-width:1.5;" x1="40" x2="40" y1="53.6019" y2="53.6019"/><rect fill="transparent" height="29.0679" style="stroke:#181818;stroke-width:0.5;" width="45.8819" x="40" y="39.0679"/><text fill="#000000" font-family="sans-serif" font-size="14" lengthAdjust="spacing" textLength="35.8819" x="45" y="59.0339">given</text><line style="stroke:#181818;stroke-width:1.5;" x1="85.8819" x2="105.8819" y1="53.6019" y2="53.6019"/><rect fill="transparent" height="29.0679" style="stroke:#181818;stroke-width:0.5;" width="15.32" x="105.8819" y="39.0679"/><text fill="#000000" font-family="sans-serif" font-size="14" lengthAdjust="spacing" textLength="5.32" x="110.8819" y="59.0339">{</text><line style="stroke:#181818;stroke-width:1.5;" x1="121.2018" x2="141.2018" y1="53.6019" y2="53.6019"/><rect fill="#F1F1F1" height="29.0679" rx="5" ry="5" style="stroke:#181818;stroke-width:1.5;" width="93.5377" x="141.2018" y="39.0679"/><text fill="#000000" font-family="sans-serif" font-size="14" lengthAdjust="spacing" textLength="83.5377" x="146.2018" y="59.0339">assignments</text><line style="stroke:#181818;stroke-width:1.5;" x1="234.7395" x2="254.7395" y1="53.6019" y2="53.6019"/><rect fill="transparent" height="29.0679" style="stroke:#181818;stroke-width:0.5;" width="15.32" x="254.7395" y="39.0679"/><text fill="#000000" font-family="sans-serif" font-size="14" lengthAdjust="spacing" textLength="5.32" x="259.7395" y="59.0339">}</text><ellipse cx="14" cy="53.6019" fill="transparent" rx="4" ry="4" style="stroke:#181818;stroke-width:2;"/><ellipse cx="300.0595" cy="53.6019" fill="#181818" rx="4" ry="4" style="stroke:#181818;stroke-width:1;"/><line style="stroke:#181818;stroke-width:1.5;" x1="18" x2="40" y1="53.6019" y2="53.6019"/><line style="stroke:#181818;stroke-width:1.5;" x1="270.0595" x2="296.0595" y1="53.6019" y2="53.6019"/><path d="M281.0595,53.6019 L281.0595,50.6019 L287.0595,53.6019 L281.0595,56.6019 L281.0595,53.6019 " fill="#181818" style="stroke:#181818;stroke-width:1.5;"/><text fill="#000000" font-family="sans-serif" font-size="14" font-weight="bold" lengthAdjust="spacing" textLength="88.3502" x="10" y="98.1018">assignments</text><path d="M48,146.7377 C48,152.7377 46,154.7377 40,154.7377 " fill="transparent" style="stroke:#181818;stroke-width:1.5;"/><line style="stroke:#181818;stroke-width:1.5;" x1="48" x2="48" y1="125.2038" y2="146.7377"/><path d="M48,125.2038 C48,119.2038 50,117.2038 56,117.2038 " fill="transparent" style="stroke:#181818;stroke-width:1.5;"/><line style="stroke:#181818;stroke-width:1.5;" x1="56" x2="170.8317" y1="117.2038" y2="117.2038"/><path d="M99.9327,117.2038 L99.9327,114.2038 L105.9327,117.2038 L99.9327,120.2038 L99.9327,117.2038 " fill="#181818" style="stroke:#181818;stroke-width:1.5;"/><path d="M178.8317,146.7377 C178.8317,152.7377 180.8317,154.7377 186.8317,154.7377 " fill="transparent" style="stroke:#181818;stroke-width:1.5;"/><line style="stroke:#181818;stroke-width:1.5;" x1="178.8317" x2="178.8317" y1="125.2038" y2="146.7377"/><path d="M170.8317,117.2038 C176.8317,117.2038 178.8317,119.2038 178.8317,125.2038 " fill="transparent" style="stroke:#181818;stroke-width:1.5;"/><line style="stroke:#181818;stroke-width:1.5;" x1="40" x2="55" y1="154.7377" y2="154.7377"/><line style="stroke:#181818;stroke-width:1.5;" x1="171.8317" x2="186.8317" y1="154.7377" y2="154.7377"/><path d="M63,146.7377 C63,152.7377 65,154.7377 71,154.7377 " fill="transparent" style="stroke:#181818;stroke-width:1.5;"/><line style="stroke:#181818;stroke-width:1.5;" x1="63" x2="63" y1="141.2038" y2="146.7377"/><path d="M63,141.2038 C63,135.2038 65,133.2038 71,133.2038 " fill="transparent" style="stroke:#181818;stroke-width:1.5;"/><line style="stroke:#181818;stroke-width:1.5;" x1="70" x2="156.8317" y1="133.2038" y2="133.2038"/><path d="M120.099,133.2038 L120.099,130.2038 L114.099,133.2038 L120.099,136.2038 L120.099,133.2038 " fill="#181818" style="stroke:#181818;stroke-width:1.5;"/><path d="M163.8317,146.7377 C163.8317,152.7377 161.8317,154.7377 155.8317,154.7377 " fill="transparent" style="stroke:#181818;stroke-width:1.5;"/><line style="stroke:#181818;stroke-width:1.5;" x1="163.8317" x2="163.8317" y1="141.2038" y2="146.7377"/><path d="M155.8317,133.2038 C161.8317,133.2038 163.8317,135.2038 163.8317,141.2038 " fill="transparent" style="stroke:#181818;stroke-width:1.5;"/><line style="stroke:#181818;stroke-width:1.5;" x1="55" x2="70" y1="154.7377" y2="154.7377"/><line style="stroke:#181818;stroke-width:1.5;" x1="156.8317" x2="171.8317" y1="154.7377" y2="154.7377"/><rect fill="#F1F1F1" height="29.0679" rx="5" ry="5" style="stroke:#181818;stroke-width:1.5;" width="86.8317" x="70" y="140.2038"/><text fill="#000000" font-family="sans-serif" font-size="14" lengthAdjust="spacing" textLength="76.8317" x="75" y="160.1697">assignment</text><ellipse cx="14" cy="154.7377" fill="transparent" rx="4" ry="4" style="stroke:#181818;stroke-width:2;"/><ellipse cx="216.8317" cy="154.7377" fill="#181818" rx="4" ry="4" style="stroke:#181818;stroke-width:1;"/><line style="stroke:#181818;stroke-width:1.5;" x1="18" x2="40" y1="154.7377" y2="154.7377"/><line style="stroke:#181818;stroke-width:1.5;" x1="186.8317" x2="212.8317" y1="154.7377" y2="154.7377"/><path d="M197.8317,154.7377 L197.8317,151.7377 L203.8317,154.7377 L197.8317,157.7377 L197.8317,154.7377 " fill="#181818" style="stroke:#181818;stroke-width:1.5;"/><text fill="#000000" font-family="sans-serif" font-size="14" font-weight="bold" lengthAdjust="spacing" textLength="81.2067" x="10" y="199.2376">assignment</text><rect fill="#F1F1F1" height="29.0679" rx="5" ry="5" style="stroke:#181818;stroke-width:1.5;" width="179.8053" x="64" y="213.3396"/><text fill="#000000" font-family="sans-serif" font-size="14" lengthAdjust="spacing" textLength="169.8053" x="69" y="233.3055">non_mutable_assignment</text><line style="stroke:#181818;stroke-width:1.5;" x1="40" x2="64" y1="227.8735" y2="227.8735"/><line style="stroke:#181818;stroke-width:1.5;" x1="243.8053" x2="267.8053" y1="227.8735" y2="227.8735"/><rect fill="#F1F1F1" height="29.0679" rx="5" ry="5" style="stroke:#181818;stroke-width:1.5;" width="147.8155" x="64" y="252.4075"/><text fill="#000000" font-family="sans-serif" font-size="14" lengthAdjust="spacing" textLength="137.8155" x="69" y="272.3734">mutable_assignment</text><line style="stroke:#181818;stroke-width:1.5;" x1="211.8155" x2="243.8053" y1="266.9415" y2="266.9415"/><path d="M225.8104,266.9415 L225.8104,263.9415 L231.8104,266.9415 L225.8104,269.9415 L225.8104,266.9415 " fill="#181818" style="stroke:#181818;stroke-width:1.5;"/><path d="M52,254.9415 C52,263.9415 55,266.9415 64,266.9415 " fill="transparent" style="stroke:#181818;stroke-width:1.5;"/><line style="stroke:#181818;stroke-width:1.5;" x1="52" x2="52" y1="239.8735" y2="254.9415"/><path d="M40,227.8735 C49,227.8735 52,230.8735 52,239.8735 " fill="transparent" style="stroke:#181818;stroke-width:1.5;"/><path d="M255.8053,254.9415 C255.8053,263.9415 252.8053,266.9415 243.8053,266.9415 " fill="transparent" style="stroke:#181818;stroke-width:1.5;"/><line style="stroke:#181818;stroke-width:1.5;" x1="255.8053" x2="255.8053" y1="239.8735" y2="254.9415"/><path d="M255.8053,239.8735 C255.8053,230.8735 258.8053,227.8735 267.8053,227.8735 " fill="transparent" style="stroke:#181818;stroke-width:1.5;"/><ellipse cx="14" cy="227.8735" fill="transparent" rx="4" ry="4" style="stroke:#181818;stroke-width:2;"/><ellipse cx="297.8053" cy="227.8735" fill="#181818" rx="4" ry="4" style="stroke:#181818;stroke-width:1;"/><line style="stroke:#181818;stroke-width:1.5;" x1="18" x2="40" y1="227.8735" y2="227.8735"/><line style="stroke:#181818;stroke-width:1.5;" x1="267.8053" x2="293.8053" y1="227.8735" y2="227.8735"/><path d="M278.8053,227.8735 L278.8053,224.8735 L284.8053,227.8735 L278.8053,230.8735 L278.8053,227.8735 " fill="#181818" style="stroke:#181818;stroke-width:1.5;"/><text fill="#000000" font-family="sans-serif" font-size="14" font-weight="bold" lengthAdjust="spacing" textLength="179.4303" x="10" y="311.4414">non_mutable_assignment</text><line style="stroke:#181818;stroke-width:1.5;" x1="40" x2="40" y1="340.0773" y2="340.0773"/><rect fill="#F1F1F1" height="29.0679" rx="5" ry="5" style="stroke:#181818;stroke-width:1.5;" width="69.5418" x="40" y="325.5433"/><text fill="#000000" font-family="sans-serif" font-size="14" lengthAdjust="spacing" textLength="59.5418" x="45" y="345.5093">identifier</text><line style="stroke:#181818;stroke-width:1.5;" x1="109.5418" x2="129.5418" y1="340.0773" y2="340.0773"/><rect fill="transparent" height="29.0679" style="stroke:#181818;stroke-width:0.5;" width="18.008" x="129.5418" y="325.5433"/><text fill="#000000" font-family="sans-serif" font-size="14" lengthAdjust="spacing" textLength="8.008" x="134.5418" y="345.5093">=</text><line style="stroke:#181818;stroke-width:1.5;" x1="147.5497" x2="167.5497" y1="340.0773" y2="340.0773"/><rect fill="#F1F1F1" height="29.0679" rx="5" ry="5" style="stroke:#181818;stroke-width:1.5;" width="81.7357" x="167.5497" y="325.5433"/><text fill="#000000" font-family="sans-serif" font-size="14" lengthAdjust="spacing" textLength="71.7357" x="172.5497" y="345.5093">expression</text><ellipse cx="14" cy="340.0773" fill="transparent" rx="4" ry="4" style="stroke:#181818;stroke-width:2;"/><ellipse cx="279.2855" cy="340.0773" fill="#181818" rx="4" ry="4" style="stroke:#181818;stroke-width:1;"/><line style="stroke:#181818;stroke-width:1.5;" x1="18" x2="40" y1="340.0773" y2="340.0773"/><line style="stroke:#181818;stroke-width:1.5;" x1="249.2855" x2="275.2855" y1="340.0773" y2="340.0773"/><path d="M260.2855,340.0773 L260.2855,337.0773 L266.2855,340.0773 L260.2855,343.0773 L260.2855,340.0773 " fill="#181818" style="stroke:#181818;stroke-width:1.5;"/><text fill="#000000" font-family="sans-serif" font-size="14" font-weight="bold" lengthAdjust="spacing" textLength="145.6905" x="10" y="384.5772">mutable_assignment</text><line style="stroke:#181818;stroke-width:1.5;" x1="40" x2="40" y1="413.2131" y2="413.2131"/><rect fill="transparent" height="29.0679" style="stroke:#181818;stroke-width:0.5;" width="36.7959" x="40" y="398.6792"/><text fill="#000000" font-family="sans-serif" font-size="14" lengthAdjust="spacing" textLength="26.7959" x="45" y="418.6451">mut</text><line style="stroke:#181818;stroke-width:1.5;" x1="76.7959" x2="96.7959" y1="413.2131" y2="413.2131"/><rect fill="#F1F1F1" height="29.0679" rx="5" ry="5" style="stroke:#181818;stroke-width:1.5;" width="179.8053" x="96.7959" y="398.6792"/><text fill="#000000" font-family="sans-serif" font-size="14" lengthAdjust="spacing" textLength="169.8053" x="101.7959" y="418.6451">non_mutable_assignment</text><ellipse cx="14" cy="413.2131" fill="transparent" rx="4" ry="4" style="stroke:#181818;stroke-width:2;"/><ellipse cx="306.6012" cy="413.2131" fill="#181818" rx="4" ry="4" style="stroke:#181818;stroke-width:1;"/><line style="stroke:#181818;stroke-width:1.5;" x1="18" x2="40" y1="413.2131" y2="413.2131"/><line style="stroke:#181818;stroke-width:1.5;" x1="276.6012" x2="302.6012" y1="413.2131" y2="413.2131"/><path d="M287.6012,413.2131 L287.6012,410.2131 L293.6012,413.2131 L287.6012,416.2131 L287.6012,413.2131 " fill="#181818" style="stroke:#181818;stroke-width:1.5;"/><!--SRC=[bL1BQy904BxlhvZcf51J7zLAWc2hjZGrLdnTPJMJi91CPBChBTR_tb4e1ceFtSC-ljTyRBymKXlSK2mIjKU27ZZdYtCBpe4tMHGgeGp958mS7L_Sg9WYZ25yV9siPwF9S3HZZBQfZH1Sz-xYS7SsIyKDKgHYqUVZF4Vq_p-pXB3wS7aUonnJbDCwiqPkKboN206bzGM_5Rxumza35V6fOeMQo_Iu7dxiDB8Y9rzSTJYCikvweb_wYMagoIp3CUnHd_AWuJRhpRPRhomiGY09wW_Gw7gjjjVgm62qW1DT5PMNwHYAtEejGgGAezN66lPNHI3t4cQM2sVemViEAHY-_G0mehtI-Rc625RXHT2vhpqf0tFKt0HMeHXYB6rgsB7D8qM91yl5Swqhnf8IAnFEHXA3d7Fr9tFpRm00]--></g></svg>