<svg xmlns="http://www.w3.org/2000/svg" xmlns:xlink="http://www.w3.org/1999/xlink" contentStyleType="text/css" data-diagram-type="EBNF" height="381px" preserveAspectRatio="none" style="width:321px;height:381px;background:#FFFFFF;" version="1.1" viewBox="0 0 321 381" width="321px" zoomAndPan="magnify"><defs/><g><text fill="#000000" font-family="sans-serif" font-size="14" font-weight="bold" lengthAdjust="spacing" textLength="88.3502" x="10" y="24.9659">assignments</text><path d="M48,73.6019 C48,79.6019 46,81.6019 40,81.6019 " fill="transparent" style="stroke:#181818;stroke-width:1.5;"/><line style="stroke:#181818;stroke-width:1.5;" x1="48" x2="48" y1="52.0679" y2="73.6019"/><path d="M48,52.0679 C48,46.0679 50,44.0679 56,44.0679 " fill="transparent" style="stroke:#181818;stroke-width:1.5;"/><line style="stroke:#181818;stroke-width:1.5;" x1="56" x2="170.8317" y1="44.0679" y2="44.0679"/><path d="M99.9327,44.0679 L99.9327,41.0679 L105.9327,44.0679 L99.9327,47.0679 L99.9327,44.0679 " fill="#181818" style="stroke:#181818;stroke-width:1.5;"/><path d="M178.8317,73.6019 C178.8317,79.6019 180.8317,81.6019 186.8317,81.6019 " fill="transparent" style="stroke:#181818;stroke-width:1.5;"/><line style="stroke:#181818;stroke-width:1.5;" x1="178.8317" x2="178.8317" y1="52.0679" y2="73.6019"/><path d="M170.8317,44.0679 C176.8317,44.0679 178.8317,46.0679 178.8317,52.0679 " fill="transparent" style="stroke:#181818;stroke-width:1.5;"/><line style="stroke:#181818;stroke-width:1.5;" x1="40" x2="55" y1="81.6019" y2="81.6019"/><line style="stroke:#181818;stroke-width:1.5;" x1="171.8317" x2="186.8317" y1="81.6019" y2="81.6019"/><path d="M63,73.6019 C63,79.6019 65,81.6019 71,81.6019 " fill="transparent" style="stroke:#181818;stroke-width:1.5;"/><line style="stroke:#181818;stroke-width:1.5;" x1="63" x2="63" y1="68.0679" y2="73.6019"/><path d="M63,68.0679 C63,62.0679 65,60.0679 71,60.0679 " fill="transparent" style="stroke:#181818;stroke-width:1.5;"/><line style="stroke:#181818;stroke-width:1.5;" x1="70" x2="156.8317" y1="60.0679" y2="60.0679"/><path d="M120.099,60.0679 L120.099,57.0679 L114.099,60.0679 L120.099,63.0679 L120.099,60.0679 " fill="#181818" style="stroke:#181818;stroke-width:1.5;"/><path d="M163.8317,73.6019 C163.8317,79.6019 161.8317,81.6019 155.8317,81.6019 " fill="transparent" style="stroke:#181818;stroke-width:1.5;"/><line style="stroke:#181818;stroke-width:1.5;" x1="163.8317" x2="163.8317" y1="68.0679" y2="73.6019"/><path d="M155.8317,60.0679 C161.8317,60.0679 163.8317,62.0679 163.8317,68.0679 " fill="transparent" style="stroke:#181818;stroke-width:1.5;"/><line style="stroke:#181818;stroke-width:1.5;" x1="55" x2="70" y1="81.6019" y2="81.6019"/><line style="stroke:#181818;stroke-width:1.5;" x1="156.8317" x2="171.8317" y1="81.6019" y2="81.6019"/><rect fill="#F1F1F1" height="29.0679" rx="5" ry="5" style="stroke:#181818;stroke-width:1.5;" width="86.8317" x="70" y="67.0679"/><text fill="#000000" font-family="sans-serif" font-size="14" lengthAdjust="spacing" textLength="76.8317" x="75" y="87.0339">assignment</text><ellipse cx="14" cy="81.6019" fill="transparent" rx="4" ry="4" style="stroke:#181818;stroke-width:2;"/><ellipse cx="216.8317" cy="81.6019" fill="#181818" rx="4" ry="4" style="stroke:#181818;stroke-width:1;"/><line style="stroke:#181818;stroke-width:1.5;" x1="18" x2="40" y1="81.6019" y2="81.6019"/><line style="stroke:#181818;stroke-width:1.5;" x1="186.8317" x2="212.8317" y1="81.6019" y2="81.6019"/><path d="M197.8317,81.6019 L197.8317,78.6019 L203.8317,81.6019 L197.8317,84.6019 L197.8317,81.6019 " fill="#181818" style="stroke:#181818;stroke-width:1.5;"/><text fill="#000000" font-family="sans-serif" font-size="14" font-weight="bold" lengthAdjust="spacing" textLength="81.2067" x="10" y="126.1018">assignment</text><rect fill="#F1F1F1" height="29.0679" rx="5" ry="5" style="stroke:#181818;stroke-width:1.5;" width="179.8053" x="64" y="140.2038"/><text fill="#000000" font-family="sans-serif" font-size="14" lengthAdjust="spacing" textLength="169.8053" x="69" y="160.1697">non_mutable_assignment</text><line style="stroke:#181818;stroke-width:1.5;" x1="40" x2="64" y1="154.7377" y2="154.7377"/><line style="stroke:#181818;stroke-width:1.5;" x1="243.8053" x2="267.8053" y1="154.7377" y2="154.7377"/><rect fill="#F1F1F1" height="29.0679" rx="5" ry="5" style="stroke:#181818;stroke-width:1.5;" width="147.8155" x="64" y="179.2717"/><text fill="#000000" font-family="sans-serif" font-size="14" lengthAdjust="spacing" textLength="137.8155" x="69" y="199.2376">mutable_assignment</text><line style="stroke:#181818;stroke-width:1.5;" x1="211.8155" x2="243.8053" y1="193.8056" y2="193.8056"/><path d="M225.8104,193.8056 L225.8104,190.8056 L231.8104,193.8056 L225.8104,196.8056 L225.8104,193.8056 " fill="#181818" style="stroke:#181818;stroke-width:1.5;"/><path d="M52,181.8056 C52,190.8056 55,193.8056 64,193.8056 " fill="transparent" style="stroke:#181818;stroke-width:1.5;"/><line style="stroke:#181818;stroke-width:1.5;" x1="52" x2="52" y1="166.7377" y2="181.8056"/><path d="M40,154.7377 C49,154.7377 52,157.7377 52,166.7377 " fill="transparent" style="stroke:#181818;stroke-width:1.5;"/><path d="M255.8053,181.8056 C255.8053,190.8056 252.8053,193.8056 243.8053,193.8056 " fill="transparent" style="stroke:#181818;stroke-width:1.5;"/><line style="stroke:#181818;stroke-width:1.5;" x1="255.8053" x2="255.8053" y1="166.7377" y2="181.8056"/><path d="M255.8053,166.7377 C255.8053,157.7377 258.8053,154.7377 267.8053,154.7377 " fill="transparent" style="stroke:#181818;stroke-width:1.5;"/><ellipse cx="14" cy="154.7377" fill="transparent" rx="4" ry="4" style="stroke:#181818;stroke-width:2;"/><ellipse cx="297.8053" cy="154.7377" fill="#181818" rx="4" ry="4" style="stroke:#181818;stroke-width:1;"/><line style="stroke:#181818;stroke-width:1.5;" x1="18" x2="40" y1="154.7377" y2="154.7377"/><line style="stroke:#181818;stroke-width:1.5;" x1="267.8053" x2="293.8053" y1="154.7377" y2="154.7377"/><path d="M278.8053,154.7377 L278.8053,151.7377 L284.8053,154.7377 L278.8053,157.7377 L278.8053,154.7377 " fill="#181818" style="stroke:#181818;stroke-width:1.5;"/><text fill="#000000" font-family="sans-serif" font-size="14" font-weight="bold" lengthAdjust="spacing" textLength="179.4303" x="10" y="238.3055">non_mutable_assignment</text><line style="stroke:#181818;stroke-width:1.5;" x1="40" x2="40" y1="266.9415" y2="266.9415"/><rect fill="#F1F1F1" height="29.0679" rx="5" ry="5" style="stroke:#181818;stroke-width:1.5;" width="69.5418" x="40" y="252.4075"/><text fill="#000000" font-family="sans-serif" font-size="14" lengthAdjust="spacing" textLength="59.5418" x="45" y="272.3734">identifier</text><line style="stroke:#181818;stroke-width:1.5;" x1="109.5418" x2="129.5418" y1="266.9415" y2="266.9415"/><rect fill="transparent" height="29.0679" style="stroke:#181818;stroke-width:0.5;" width="18.008" x="129.5418" y="252.4075"/><text fill="#000000" font-family="sans-serif" font-size="14" lengthAdjust="spacing" textLength="8.008" x="134.5418" y="272.3734">=</text><line style="stroke:#181818;stroke-width:1.5;" x1="147.5497" x2="167.5497" y1="266.9415" y2="266.9415"/><rect fill="#F1F1F1" height="29.0679" rx="5" ry="5" style="stroke:#181818;stroke-width:1.5;" width="81.7357" x="167.5497" y="252.4075"/><text fill="#000000" font-family="sans-serif" font-size="14" lengthAdjust="spacing" textLength="71.7357" x="172.5497" y="272.3734">expression</text><ellipse cx="14" cy="266.9415" fill="transparent" rx="4" ry="4" style="stroke:#181818;stroke-width:2;"/><ellipse cx="279.2855" cy="266.9415" fill="#181818" rx="4" ry="4" style="stroke:#181818;stroke-width:1;"/><line style="stroke:#181818;stroke-width:1.5;" x1="18" x2="40" y1="266.9415" y2="266.9415"/><line style="stroke:#181818;stroke-width:1.5;" x1="249.2855" x2="275.2855" y1="266.9415" y2="266.9415"/><path d="M260.2855,266.9415 L260.2855,263.9415 L266.2855,266.9415 L260.2855,269.9415 L260.2855,266.9415 " fill="#181818" style="stroke:#181818;stroke-width:1.5;"/><text fill="#000000" font-family="sans-serif" font-size="14" font-weight="bold" lengthAdjust="spacing" textLength="145.6905" x="10" y="311.4414">mutable_assignment</text><line style="stroke:#181818;stroke-width:1.5;" x1="40" x2="40" y1="340.0773" y2="340.0773"/><rect fill="transparent" height="29.0679" style="stroke:#181818;stroke-width:0.5;" width="36.7959" x="40" y="325.5433"/><text fill="#000000" font-family="sans-serif" font-size="14" lengthAdjust="spacing" textLength="26.7959" x="45" y="345.5093">mut</text><line style="stroke:#181818;stroke-width:1.5;" x1="76.7959" x2="96.7959" y1="340.0773" y2="340.0773"/><rect fill="#F1F1F1" height="29.0679" rx="5" ry="5" style="stroke:#181818;stroke-width:1.5;" width="179.8053" x="96.7959" y="325.5433"/><text fill="#000000" font-family="sans-serif" font-size="14" lengthAdjust="spacing" textLength="169.8053" x="101.7959" y="345.5093">non_mutable_assignment</text><ellipse cx="14" cy="340.0773" fill="transparent" rx="4" ry="4" style="stroke:#181818;stroke-width:2;"/><ellipse cx="306.6012" cy="340.0773" fill="#181818" rx="4" ry="4" style="stroke:#181818;stroke-width:1;"/><line style="stroke:#181818;stroke-width:1.5;" x1="18" x2="40" y1="340.0773" y2="340.0773"/><line style="stroke:#181818;stroke-width:1.5;" x1="276.6012" x2="302.6012" y1="340.0773" y2="340.0773"/><path d="M287.6012,340.0773 L287.6012,337.0773 L293.6012,340.0773 L287.6012,343.0773 L287.6012,340.0773 " fill="#181818" style="stroke:#181818;stroke-width:1.5;"/><!--SRC=[TO_TQi9048Nlzoc6N2ceHArM4W9IjOKqejJehMpC92maix8_eQNjktSLYe7QkLbcldCEP-VQS6Kmeu9nhKL9DPBH4C7dRVqEMymXadIihU5PXSSMOD2QB_Yh2Da_pWX4xbvH25Gzy2Al1_X-LkWKaa9sr-6vgzFTJmpP72c__efjAqvclqwWGNN9W-5Wv8yc0x-JMeIO4_YFC9m5uqamdi9YbS85TrddPPk0bbQT47AXZHAPDSxVPJ5lEBnPLxZ603Pdf7Zv-dk05JL2oMiD5X_MDy7qeVya3EnGkIPmMBCb5jnMnZbECXTK1h1Fd_ipbd0gBIzTDX9RI9UhFXpR_G00]--></g></svg>