<svg xmlns="http://www.w3.org/2000/svg" xmlns:xlink="http://www.w3.org/1999/xlink" contentStyleType="text/css" data-diagram-type="EBNF" height="661px" preserveAspectRatio="none" style="width:624px;height:661px;background:#FFFFFF;" version="1.1" viewBox="0 0 624 661" width="624px" zoomAndPan="magnify"><defs/><g><text fill="#000000" font-family="sans-serif" font-size="14" font-weight="bold" lengthAdjust="spacing" textLength="39.6513" x="10" y="24.9659">check</text><line style="stroke:#181818;stroke-width:1.5;" x1="40" x2="40" y1="53.6019" y2="53.6019"/><rect fill="transparent" height="29.0679" style="stroke:#181818;stroke-width:0.5;" width="47.4638" x="40" y="39.0679"/><text fill="#000000" font-family="sans-serif" font-size="14" lengthAdjust="spacing" textLength="37.4638" x="45" y="59.0339">check</text><line style="stroke:#181818;stroke-width:1.5;" x1="87.4638" x2="107.4638" y1="53.6019" y2="53.6019"/><rect fill="transparent" height="29.0679" style="stroke:#181818;stroke-width:0.5;" width="15.32" x="107.4638" y="39.0679"/><text fill="#000000" font-family="sans-serif" font-size="14" lengthAdjust="spacing" textLength="5.32" x="112.4638" y="59.0339">{</text><line style="stroke:#181818;stroke-width:1.5;" x1="122.7838" x2="142.7838" y1="53.6019" y2="53.6019"/><rect fill="#F1F1F1" height="29.0679" rx="5" ry="5" style="stroke:#181818;stroke-width:1.5;" width="78.5577" x="142.7838" y="39.0679"/><text fill="#000000" font-family="sans-serif" font-size="14" lengthAdjust="spacing" textLength="68.5577" x="147.7838" y="59.0339">conditions</text><line style="stroke:#181818;stroke-width:1.5;" x1="221.3416" x2="241.3416" y1="53.6019" y2="53.6019"/><rect fill="transparent" height="29.0679" style="stroke:#181818;stroke-width:0.5;" width="15.32" x="241.3416" y="39.0679"/><text fill="#000000" font-family="sans-serif" font-size="14" lengthAdjust="spacing" textLength="5.32" x="246.3416" y="59.0339">}</text><ellipse cx="14" cy="53.6019" fill="transparent" rx="4" ry="4" style="stroke:#181818;stroke-width:2;"/><ellipse cx="286.6615" cy="53.6019" fill="#181818" rx="4" ry="4" style="stroke:#181818;stroke-width:1;"/><line style="stroke:#181818;stroke-width:1.5;" x1="18" x2="40" y1="53.6019" y2="53.6019"/><line style="stroke:#181818;stroke-width:1.5;" x1="256.6615" x2="282.6615" y1="53.6019" y2="53.6019"/><path d="M267.6615,53.6019 L267.6615,50.6019 L273.6615,53.6019 L267.6615,56.6019 L267.6615,53.6019 " fill="#181818" style="stroke:#181818;stroke-width:1.5;"/><text fill="#000000" font-family="sans-serif" font-size="14" font-weight="bold" lengthAdjust="spacing" textLength="72.9327" x="10" y="98.1018">conditions</text><line style="stroke:#181818;stroke-width:1.5;" x1="64" x2="64" y1="126.7377" y2="126.7377"/><rect fill="#F1F1F1" height="29.0679" rx="5" ry="5" style="stroke:#181818;stroke-width:1.5;" width="71.8518" x="64" y="112.2038"/><text fill="#000000" font-family="sans-serif" font-size="14" lengthAdjust="spacing" textLength="61.8518" x="69" y="132.1697">condition</text><line style="stroke:#181818;stroke-width:1.5;" x1="135.8518" x2="155.8518" y1="126.7377" y2="126.7377"/><rect fill="transparent" height="29.0679" style="stroke:#181818;stroke-width:0.5;" width="24.252" x="179.8518" y="112.2038"/><text fill="#000000" font-family="sans-serif" font-size="14" lengthAdjust="spacing" textLength="14.252" x="184.8518" y="132.1697">or</text><line style="stroke:#181818;stroke-width:1.5;" x1="155.8518" x2="179.8518" y1="126.7377" y2="126.7377"/><line style="stroke:#181818;stroke-width:1.5;" x1="204.1037" x2="238.9677" y1="126.7377" y2="126.7377"/><rect fill="transparent" height="29.0679" style="stroke:#181818;stroke-width:0.5;" width="35.1159" x="179.8518" y="151.2717"/><text fill="#000000" font-family="sans-serif" font-size="14" lengthAdjust="spacing" textLength="25.1159" x="184.8518" y="171.2376">and</text><line style="stroke:#181818;stroke-width:1.5;" x1="214.9677" x2="214.9677" y1="165.8056" y2="165.8056"/><path d="M167.8518,153.8056 C167.8518,162.8056 170.8518,165.8056 179.8518,165.8056 " fill="transparent" style="stroke:#181818;stroke-width:1.5;"/><line style="stroke:#181818;stroke-width:1.5;" x1="167.8518" x2="167.8518" y1="138.7377" y2="153.8056"/><path d="M155.8518,126.7377 C164.8518,126.7377 167.8518,129.7377 167.8518,138.7377 " fill="transparent" style="stroke:#181818;stroke-width:1.5;"/><path d="M226.9677,153.8056 C226.9677,162.8056 223.9677,165.8056 214.9677,165.8056 " fill="transparent" style="stroke:#181818;stroke-width:1.5;"/><line style="stroke:#181818;stroke-width:1.5;" x1="226.9677" x2="226.9677" y1="138.7377" y2="153.8056"/><path d="M226.9677,138.7377 C226.9677,129.7377 229.9677,126.7377 238.9677,126.7377 " fill="transparent" style="stroke:#181818;stroke-width:1.5;"/><line style="stroke:#181818;stroke-width:1.5;" x1="238.9677" x2="258.9677" y1="126.7377" y2="126.7377"/><rect fill="#F1F1F1" height="29.0679" rx="5" ry="5" style="stroke:#181818;stroke-width:1.5;" width="78.5577" x="258.9677" y="112.2038"/><text fill="#000000" font-family="sans-serif" font-size="14" lengthAdjust="spacing" textLength="68.5577" x="263.9677" y="132.1697">conditions</text><line style="stroke:#181818;stroke-width:1.5;" x1="40" x2="64" y1="126.7377" y2="126.7377"/><line style="stroke:#181818;stroke-width:1.5;" x1="337.5254" x2="579.847" y1="126.7377" y2="126.7377"/><line style="stroke:#181818;stroke-width:1.5;" x1="64" x2="64" y1="204.8735" y2="204.8735"/><rect fill="transparent" height="29.0679" style="stroke:#181818;stroke-width:0.5;" width="29.0679" x="64" y="190.3396"/><text fill="#000000" font-family="sans-serif" font-size="14" lengthAdjust="spacing" textLength="19.0679" x="69" y="210.3055">for</text><line style="stroke:#181818;stroke-width:1.5;" x1="93.0679" x2="113.0679" y1="204.8735" y2="204.8735"/><rect fill="transparent" height="29.0679" style="stroke:#181818;stroke-width:0.5;" width="33.6459" x="137.0679" y="190.3396"/><text fill="#000000" font-family="sans-serif" font-size="14" lengthAdjust="spacing" textLength="23.6459" x="142.0679" y="210.3055">any</text><line style="stroke:#181818;stroke-width:1.5;" x1="113.0679" x2="137.0679" y1="204.8735" y2="204.8735"/><line style="stroke:#181818;stroke-width:1.5;" x1="170.7138" x2="202.1898" y1="204.8735" y2="204.8735"/><rect fill="transparent" height="29.0679" style="stroke:#181818;stroke-width:0.5;" width="41.1219" x="137.0679" y="229.4075"/><text fill="#000000" font-family="sans-serif" font-size="14" lengthAdjust="spacing" textLength="31.1219" x="142.0679" y="249.3734">each</text><line style="stroke:#181818;stroke-width:1.5;" x1="178.1898" x2="178.1898" y1="243.9415" y2="243.9415"/><path d="M125.0679,231.9415 C125.0679,240.9415 128.0679,243.9415 137.0679,243.9415 " fill="transparent" style="stroke:#181818;stroke-width:1.5;"/><line style="stroke:#181818;stroke-width:1.5;" x1="125.0679" x2="125.0679" y1="216.8735" y2="231.9415"/><path d="M113.0679,204.8735 C122.0679,204.8735 125.0679,207.8735 125.0679,216.8735 " fill="transparent" style="stroke:#181818;stroke-width:1.5;"/><path d="M190.1898,231.9415 C190.1898,240.9415 187.1898,243.9415 178.1898,243.9415 " fill="transparent" style="stroke:#181818;stroke-width:1.5;"/><line style="stroke:#181818;stroke-width:1.5;" x1="190.1898" x2="190.1898" y1="216.8735" y2="231.9415"/><path d="M190.1898,216.8735 C190.1898,207.8735 193.1898,204.8735 202.1898,204.8735 " fill="transparent" style="stroke:#181818;stroke-width:1.5;"/><line style="stroke:#181818;stroke-width:1.5;" x1="202.1898" x2="222.1898" y1="204.8735" y2="204.8735"/><rect fill="#F1F1F1" height="29.0679" rx="5" ry="5" style="stroke:#181818;stroke-width:1.5;" width="69.5418" x="222.1898" y="190.3396"/><text fill="#000000" font-family="sans-serif" font-size="14" lengthAdjust="spacing" textLength="59.5418" x="227.1898" y="210.3055">identifier</text><line style="stroke:#181818;stroke-width:1.5;" x1="291.7316" x2="311.7316" y1="204.8735" y2="204.8735"/><rect fill="transparent" height="29.0679" style="stroke:#181818;stroke-width:0.5;" width="22.2639" x="311.7316" y="190.3396"/><text fill="#000000" font-family="sans-serif" font-size="14" lengthAdjust="spacing" textLength="12.2639" x="316.7316" y="210.3055">in</text><line style="stroke:#181818;stroke-width:1.5;" x1="333.9955" x2="353.9955" y1="204.8735" y2="204.8735"/><rect fill="#F1F1F1" height="29.0679" rx="5" ry="5" style="stroke:#181818;stroke-width:1.5;" width="69.5418" x="353.9955" y="190.3396"/><text fill="#000000" font-family="sans-serif" font-size="14" lengthAdjust="spacing" textLength="59.5418" x="358.9955" y="210.3055">identifier</text><line style="stroke:#181818;stroke-width:1.5;" x1="423.5373" x2="443.5373" y1="204.8735" y2="204.8735"/><rect fill="transparent" height="29.0679" style="stroke:#181818;stroke-width:0.5;" width="13.752" x="443.5373" y="190.3396"/><text fill="#000000" font-family="sans-serif" font-size="14" lengthAdjust="spacing" textLength="3.752" x="448.5373" y="210.3055">,</text><line style="stroke:#181818;stroke-width:1.5;" x1="457.2893" x2="477.2893" y1="204.8735" y2="204.8735"/><rect fill="#F1F1F1" height="29.0679" rx="5" ry="5" style="stroke:#181818;stroke-width:1.5;" width="78.5577" x="477.2893" y="190.3396"/><text fill="#000000" font-family="sans-serif" font-size="14" lengthAdjust="spacing" textLength="68.5577" x="482.2893" y="210.3055">conditions</text><path d="M52,192.8735 C52,201.8735 55,204.8735 64,204.8735 " fill="transparent" style="stroke:#181818;stroke-width:1.5;"/><line style="stroke:#181818;stroke-width:1.5;" x1="555.847" x2="555.847" y1="204.8735" y2="204.8735"/><path d="M567.847,192.8735 C567.847,201.8735 564.847,204.8735 555.847,204.8735 " fill="transparent" style="stroke:#181818;stroke-width:1.5;"/><rect fill="#F1F1F1" height="29.0679" rx="5" ry="5" style="stroke:#181818;stroke-width:1.5;" width="71.8518" x="64" y="268.4754"/><text fill="#000000" font-family="sans-serif" font-size="14" lengthAdjust="spacing" textLength="61.8518" x="69" y="288.4414">condition</text><line style="stroke:#181818;stroke-width:1.5;" x1="135.8518" x2="555.847" y1="283.0094" y2="283.0094"/><path d="M343.8494,283.0094 L343.8494,280.0094 L349.8494,283.0094 L343.8494,286.0094 L343.8494,283.0094 " fill="#181818" style="stroke:#181818;stroke-width:1.5;"/><path d="M52,271.0094 C52,280.0094 55,283.0094 64,283.0094 " fill="transparent" style="stroke:#181818;stroke-width:1.5;"/><line style="stroke:#181818;stroke-width:1.5;" x1="52" x2="52" y1="138.7377" y2="271.0094"/><path d="M40,126.7377 C49,126.7377 52,129.7377 52,138.7377 " fill="transparent" style="stroke:#181818;stroke-width:1.5;"/><path d="M567.847,271.0094 C567.847,280.0094 564.847,283.0094 555.847,283.0094 " fill="transparent" style="stroke:#181818;stroke-width:1.5;"/><line style="stroke:#181818;stroke-width:1.5;" x1="567.847" x2="567.847" y1="138.7377" y2="271.0094"/><path d="M567.847,138.7377 C567.847,129.7377 570.847,126.7377 579.847,126.7377 " fill="transparent" style="stroke:#181818;stroke-width:1.5;"/><ellipse cx="14" cy="126.7377" fill="transparent" rx="4" ry="4" style="stroke:#181818;stroke-width:2;"/><ellipse cx="609.847" cy="126.7377" fill="#181818" rx="4" ry="4" style="stroke:#181818;stroke-width:1;"/><line style="stroke:#181818;stroke-width:1.5;" x1="18" x2="40" y1="126.7377" y2="126.7377"/><line style="stroke:#181818;stroke-width:1.5;" x1="579.847" x2="605.847" y1="126.7377" y2="126.7377"/><path d="M590.847,126.7377 L590.847,123.7377 L596.847,126.7377 L590.847,129.7377 L590.847,126.7377 " fill="#181818" style="stroke:#181818;stroke-width:1.5;"/><text fill="#000000" font-family="sans-serif" font-size="14" font-weight="bold" lengthAdjust="spacing" textLength="65.7893" x="10" y="327.5093">condition</text><line style="stroke:#181818;stroke-width:1.5;" x1="40" x2="40" y1="356.1452" y2="356.1452"/><rect fill="#F1F1F1" height="29.0679" rx="5" ry="5" style="stroke:#181818;stroke-width:1.5;" width="81.7357" x="40" y="341.6113"/><text fill="#000000" font-family="sans-serif" font-size="14" lengthAdjust="spacing" textLength="71.7357" x="45" y="361.5772">expression</text><line style="stroke:#181818;stroke-width:1.5;" x1="121.7357" x2="141.7357" y1="356.1452" y2="356.1452"/><rect fill="#F1F1F1" height="29.0679" rx="5" ry="5" style="stroke:#181818;stroke-width:1.5;" width="57.6278" x="141.7357" y="341.6113"/><text fill="#000000" font-family="sans-serif" font-size="14" lengthAdjust="spacing" textLength="47.6278" x="146.7357" y="361.5772">symbol</text><line style="stroke:#181818;stroke-width:1.5;" x1="199.3636" x2="219.3636" y1="356.1452" y2="356.1452"/><rect fill="#F1F1F1" height="29.0679" rx="5" ry="5" style="stroke:#181818;stroke-width:1.5;" width="81.7357" x="219.3636" y="341.6113"/><text fill="#000000" font-family="sans-serif" font-size="14" lengthAdjust="spacing" textLength="71.7357" x="224.3636" y="361.5772">expression</text><ellipse cx="14" cy="356.1452" fill="transparent" rx="4" ry="4" style="stroke:#181818;stroke-width:2;"/><ellipse cx="331.0993" cy="356.1452" fill="#181818" rx="4" ry="4" style="stroke:#181818;stroke-width:1;"/><line style="stroke:#181818;stroke-width:1.5;" x1="18" x2="40" y1="356.1452" y2="356.1452"/><line style="stroke:#181818;stroke-width:1.5;" x1="301.0993" x2="327.0993" y1="356.1452" y2="356.1452"/><path d="M312.0993,356.1452 L312.0993,353.1452 L318.0993,356.1452 L312.0993,359.1452 L312.0993,356.1452 " fill="#181818" style="stroke:#181818;stroke-width:1.5;"/><text fill="#000000" font-family="sans-serif" font-size="14" font-weight="bold" lengthAdjust="spacing" textLength="50.2528" x="10" y="400.6451">symbol</text><rect fill="transparent" height="29.0679" style="stroke:#181818;stroke-width:0.5;" width="46.6239" x="64" y="414.7471"/><text fill="#000000" font-family="sans-serif" font-size="14" lengthAdjust="spacing" textLength="36.6239" x="69" y="434.713">equal</text><line style="stroke:#181818;stroke-width:1.5;" x1="40" x2="64" y1="429.281" y2="429.281"/><line style="stroke:#181818;stroke-width:1.5;" x1="110.6239" x2="272.2135" y1="429.281" y2="429.281"/><rect fill="#F1F1F1" height="29.0679" rx="5" ry="5" style="stroke:#181818;stroke-width:1.5;" width="99.6977" x="64" y="453.815"/><text fill="#000000" font-family="sans-serif" font-size="14" lengthAdjust="spacing" textLength="89.6977" x="69" y="473.7809">other_symbol</text><path d="M52,456.349 C52,465.349 55,468.349 64,468.349 " fill="transparent" style="stroke:#181818;stroke-width:1.5;"/><line style="stroke:#181818;stroke-width:1.5;" x1="163.6977" x2="248.2135" y1="468.349" y2="468.349"/><path d="M203.9556,468.349 L203.9556,465.349 L209.9556,468.349 L203.9556,471.349 L203.9556,468.349 " fill="#181818" style="stroke:#181818;stroke-width:1.5;"/><path d="M260.2135,456.349 C260.2135,465.349 257.2135,468.349 248.2135,468.349 " fill="transparent" style="stroke:#181818;stroke-width:1.5;"/><line style="stroke:#181818;stroke-width:1.5;" x1="64" x2="64" y1="507.4169" y2="507.4169"/><rect fill="transparent" height="29.0679" style="stroke:#181818;stroke-width:0.5;" width="64.5158" x="64" y="492.8829"/><text fill="#000000" font-family="sans-serif" font-size="14" lengthAdjust="spacing" textLength="54.5158" x="69" y="512.8489">equal or</text><line style="stroke:#181818;stroke-width:1.5;" x1="128.5158" x2="148.5158" y1="507.4169" y2="507.4169"/><rect fill="#F1F1F1" height="29.0679" rx="5" ry="5" style="stroke:#181818;stroke-width:1.5;" width="99.6977" x="148.5158" y="492.8829"/><text fill="#000000" font-family="sans-serif" font-size="14" lengthAdjust="spacing" textLength="89.6977" x="153.5158" y="512.8489">other_symbol</text><line style="stroke:#181818;stroke-width:1.5;" x1="248.2135" x2="248.2135" y1="507.4169" y2="507.4169"/><path d="M52,495.4169 C52,504.4169 55,507.4169 64,507.4169 " fill="transparent" style="stroke:#181818;stroke-width:1.5;"/><line style="stroke:#181818;stroke-width:1.5;" x1="52" x2="52" y1="441.281" y2="495.4169"/><path d="M40,429.281 C49,429.281 52,432.281 52,441.281 " fill="transparent" style="stroke:#181818;stroke-width:1.5;"/><path d="M260.2135,495.4169 C260.2135,504.4169 257.2135,507.4169 248.2135,507.4169 " fill="transparent" style="stroke:#181818;stroke-width:1.5;"/><line style="stroke:#181818;stroke-width:1.5;" x1="260.2135" x2="260.2135" y1="441.281" y2="495.4169"/><path d="M260.2135,441.281 C260.2135,432.281 263.2135,429.281 272.2135,429.281 " fill="transparent" style="stroke:#181818;stroke-width:1.5;"/><ellipse cx="14" cy="429.281" fill="transparent" rx="4" ry="4" style="stroke:#181818;stroke-width:2;"/><ellipse cx="302.2135" cy="429.281" fill="#181818" rx="4" ry="4" style="stroke:#181818;stroke-width:1;"/><line style="stroke:#181818;stroke-width:1.5;" x1="18" x2="40" y1="429.281" y2="429.281"/><line style="stroke:#181818;stroke-width:1.5;" x1="272.2135" x2="298.2135" y1="429.281" y2="429.281"/><path d="M283.2135,429.281 L283.2135,426.281 L289.2135,429.281 L283.2135,432.281 L283.2135,429.281 " fill="#181818" style="stroke:#181818;stroke-width:1.5;"/><text fill="#000000" font-family="sans-serif" font-size="14" font-weight="bold" lengthAdjust="spacing" textLength="94.9477" x="10" y="551.9168">other_symbol</text><rect fill="transparent" height="29.0679" style="stroke:#181818;stroke-width:0.5;" width="68.7718" x="64" y="566.0188"/><text fill="#000000" font-family="sans-serif" font-size="14" lengthAdjust="spacing" textLength="58.7718" x="69" y="585.9847">less than</text><line style="stroke:#181818;stroke-width:1.5;" x1="40" x2="64" y1="580.5527" y2="580.5527"/><line style="stroke:#181818;stroke-width:1.5;" x1="132.7718" x2="180.7257" y1="580.5527" y2="580.5527"/><rect fill="transparent" height="29.0679" style="stroke:#181818;stroke-width:0.5;" width="92.7257" x="64" y="605.0867"/><text fill="#000000" font-family="sans-serif" font-size="14" lengthAdjust="spacing" textLength="82.7257" x="69" y="625.0526">greater than</text><line style="stroke:#181818;stroke-width:1.5;" x1="156.7257" x2="156.7257" y1="619.6206" y2="619.6206"/><path d="M52,607.6206 C52,616.6206 55,619.6206 64,619.6206 " fill="transparent" style="stroke:#181818;stroke-width:1.5;"/><line style="stroke:#181818;stroke-width:1.5;" x1="52" x2="52" y1="592.5527" y2="607.6206"/><path d="M40,580.5527 C49,580.5527 52,583.5527 52,592.5527 " fill="transparent" style="stroke:#181818;stroke-width:1.5;"/><path d="M168.7257,607.6206 C168.7257,616.6206 165.7257,619.6206 156.7257,619.6206 " fill="transparent" style="stroke:#181818;stroke-width:1.5;"/><line style="stroke:#181818;stroke-width:1.5;" x1="168.7257" x2="168.7257" y1="592.5527" y2="607.6206"/><path d="M168.7257,592.5527 C168.7257,583.5527 171.7257,580.5527 180.7257,580.5527 " fill="transparent" style="stroke:#181818;stroke-width:1.5;"/><ellipse cx="14" cy="580.5527" fill="transparent" rx="4" ry="4" style="stroke:#181818;stroke-width:2;"/><ellipse cx="210.7257" cy="580.5527" fill="#181818" rx="4" ry="4" style="stroke:#181818;stroke-width:1;"/><line style="stroke:#181818;stroke-width:1.5;" x1="18" x2="40" y1="580.5527" y2="580.5527"/><line style="stroke:#181818;stroke-width:1.5;" x1="180.7257" x2="206.7257" y1="580.5527" y2="580.5527"/><path d="M191.7257,580.5527 L191.7257,577.5527 L197.7257,580.5527 L191.7257,583.5527 L191.7257,580.5527 " fill="#181818" style="stroke:#181818;stroke-width:1.5;"/><!--SRC=[bL5DJm8n4BttLumzGGA43q42CI42cY148XzNKtO7jd5tYjsMICJ_RdStGlLWOWzDvxqthw_JGMg4DhYXBGiY35xX5dX-u1NW7suB58NII4Mf0pvvdrr92c8ReiVKzZQ9sG0fp8tOuD-c5y1fpqK5Ibnf3YVWWa8EPR-JWR-SPEkaMOUW8pzn5474NOCCaOpSIjJkAady5rBXVtcU6I-X2uZlUurfcYTCZyb6nHKFwxC2orwDRrR4d7cMoaIeNmg5ZnTIoD_WQ_hChpBFs5q39XB4VyRDNNOQXK5Ty7tlJ-Qn8BEQJU60Eai9ZLgptcpNwgMbHPW8WleDDBgzLhlNwi1ml8ICBhFImtmAgR8wG0XbQhJSs6mCPJOH1m7FriqomHuyxP4ceyTl0CPqa5fHucRD9klPHT2vhjv90mlKBWciPso4Ms5Zupe25KhQzM2rlAzssLJGpegTyqPYG-LyzT5nYoy0]--></g></svg>