<svg xmlns="http://www.w3.org/2000/svg" xmlns:xlink="http://www.w3.org/1999/xlink" contentStyleType="text/css" data-diagram-type="EBNF" height="358px" preserveAspectRatio="none" style="width:346px;height:358px;background:#FFFFFF;" version="1.1" viewBox="0 0 346 358" width="346px" zoomAndPan="magnify"><defs/><g><text fill="#000000" font-family="sans-serif" font-size="14" font-weight="bold" lengthAdjust="spacing" textLength="65.7893" x="10" y="24.9659">condition</text><line style="stroke:#181818;stroke-width:1.5;" x1="40" x2="40" y1="53.6019" y2="53.6019"/><rect fill="#F1F1F1" height="29.0679" rx="5" ry="5" style="stroke:#181818;stroke-width:1.5;" width="81.7357" x="40" y="39.0679"/><text fill="#000000" font-family="sans-serif" font-size="14" lengthAdjust="spacing" textLength="71.7357" x="45" y="59.0339">expression</text><line style="stroke:#181818;stroke-width:1.5;" x1="121.7357" x2="141.7357" y1="53.6019" y2="53.6019"/><rect fill="#F1F1F1" height="29.0679" rx="5" ry="5" style="stroke:#181818;stroke-width:1.5;" width="57.6278" x="141.7357" y="39.0679"/><text fill="#000000" font-family="sans-serif" font-size="14" lengthAdjust="spacing" textLength="47.6278" x="146.7357" y="59.0339">symbol</text><line style="stroke:#181818;stroke-width:1.5;" x1="199.3636" x2="219.3636" y1="53.6019" y2="53.6019"/><rect fill="#F1F1F1" height="29.0679" rx="5" ry="5" style="stroke:#181818;stroke-width:1.5;" width="81.7357" x="219.3636" y="39.0679"/><text fill="#000000" font-family="sans-serif" font-size="14" lengthAdjust="spacing" textLength="71.7357" x="224.3636" y="59.0339">expression</text><ellipse cx="14" cy="53.6019" fill="transparent" rx="4" ry="4" style="stroke:#181818;stroke-width:2;"/><ellipse cx="331.0993" cy="53.6019" fill="#181818" rx="4" ry="4" style="stroke:#181818;stroke-width:1;"/><line style="stroke:#181818;stroke-width:1.5;" x1="18" x2="40" y1="53.6019" y2="53.6019"/><line style="stroke:#181818;stroke-width:1.5;" x1="301.0993" x2="327.0993" y1="53.6019" y2="53.6019"/><path d="M312.0993,53.6019 L312.0993,50.6019 L318.0993,53.6019 L312.0993,56.6019 L312.0993,53.6019 " fill="#181818" style="stroke:#181818;stroke-width:1.5;"/><text fill="#000000" font-family="sans-serif" font-size="14" font-weight="bold" lengthAdjust="spacing" textLength="50.2528" x="10" y="98.1018">symbol</text><rect fill="transparent" height="29.0679" style="stroke:#181818;stroke-width:0.5;" width="46.6239" x="64" y="112.2038"/><text fill="#000000" font-family="sans-serif" font-size="14" lengthAdjust="spacing" textLength="36.6239" x="69" y="132.1697">equal</text><line style="stroke:#181818;stroke-width:1.5;" x1="40" x2="64" y1="126.7377" y2="126.7377"/><line style="stroke:#181818;stroke-width:1.5;" x1="110.6239" x2="272.2135" y1="126.7377" y2="126.7377"/><rect fill="#F1F1F1" height="29.0679" rx="5" ry="5" style="stroke:#181818;stroke-width:1.5;" width="99.6977" x="64" y="151.2717"/><text fill="#000000" font-family="sans-serif" font-size="14" lengthAdjust="spacing" textLength="89.6977" x="69" y="171.2376">other_symbol</text><path d="M52,153.8056 C52,162.8056 55,165.8056 64,165.8056 " fill="transparent" style="stroke:#181818;stroke-width:1.5;"/><line style="stroke:#181818;stroke-width:1.5;" x1="163.6977" x2="248.2135" y1="165.8056" y2="165.8056"/><path d="M203.9556,165.8056 L203.9556,162.8056 L209.9556,165.8056 L203.9556,168.8056 L203.9556,165.8056 " fill="#181818" style="stroke:#181818;stroke-width:1.5;"/><path d="M260.2135,153.8056 C260.2135,162.8056 257.2135,165.8056 248.2135,165.8056 " fill="transparent" style="stroke:#181818;stroke-width:1.5;"/><line style="stroke:#181818;stroke-width:1.5;" x1="64" x2="64" y1="204.8735" y2="204.8735"/><rect fill="transparent" height="29.0679" style="stroke:#181818;stroke-width:0.5;" width="64.5158" x="64" y="190.3396"/><text fill="#000000" font-family="sans-serif" font-size="14" lengthAdjust="spacing" textLength="54.5158" x="69" y="210.3055">equal or</text><line style="stroke:#181818;stroke-width:1.5;" x1="128.5158" x2="148.5158" y1="204.8735" y2="204.8735"/><rect fill="#F1F1F1" height="29.0679" rx="5" ry="5" style="stroke:#181818;stroke-width:1.5;" width="99.6977" x="148.5158" y="190.3396"/><text fill="#000000" font-family="sans-serif" font-size="14" lengthAdjust="spacing" textLength="89.6977" x="153.5158" y="210.3055">other_symbol</text><line style="stroke:#181818;stroke-width:1.5;" x1="248.2135" x2="248.2135" y1="204.8735" y2="204.8735"/><path d="M52,192.8735 C52,201.8735 55,204.8735 64,204.8735 " fill="transparent" style="stroke:#181818;stroke-width:1.5;"/><line style="stroke:#181818;stroke-width:1.5;" x1="52" x2="52" y1="138.7377" y2="192.8735"/><path d="M40,126.7377 C49,126.7377 52,129.7377 52,138.7377 " fill="transparent" style="stroke:#181818;stroke-width:1.5;"/><path d="M260.2135,192.8735 C260.2135,201.8735 257.2135,204.8735 248.2135,204.8735 " fill="transparent" style="stroke:#181818;stroke-width:1.5;"/><line style="stroke:#181818;stroke-width:1.5;" x1="260.2135" x2="260.2135" y1="138.7377" y2="192.8735"/><path d="M260.2135,138.7377 C260.2135,129.7377 263.2135,126.7377 272.2135,126.7377 " fill="transparent" style="stroke:#181818;stroke-width:1.5;"/><ellipse cx="14" cy="126.7377" fill="transparent" rx="4" ry="4" style="stroke:#181818;stroke-width:2;"/><ellipse cx="302.2135" cy="126.7377" fill="#181818" rx="4" ry="4" style="stroke:#181818;stroke-width:1;"/><line style="stroke:#181818;stroke-width:1.5;" x1="18" x2="40" y1="126.7377" y2="126.7377"/><line style="stroke:#181818;stroke-width:1.5;" x1="272.2135" x2="298.2135" y1="126.7377" y2="126.7377"/><path d="M283.2135,126.7377 L283.2135,123.7377 L289.2135,126.7377 L283.2135,129.7377 L283.2135,126.7377 " fill="#181818" style="stroke:#181818;stroke-width:1.5;"/><text fill="#000000" font-family="sans-serif" font-size="14" font-weight="bold" lengthAdjust="spacing" textLength="94.9477" x="10" y="249.3734">other_symbol</text><rect fill="transparent" height="29.0679" style="stroke:#181818;stroke-width:0.5;" width="68.7718" x="64" y="263.4754"/><text fill="#000000" font-family="sans-serif" font-size="14" lengthAdjust="spacing" textLength="58.7718" x="69" y="283.4414">less than</text><line style="stroke:#181818;stroke-width:1.5;" x1="40" x2="64" y1="278.0094" y2="278.0094"/><line style="stroke:#181818;stroke-width:1.5;" x1="132.7718" x2="180.7257" y1="278.0094" y2="278.0094"/><rect fill="transparent" height="29.0679" style="stroke:#181818;stroke-width:0.5;" width="92.7257" x="64" y="302.5433"/><text fill="#000000" font-family="sans-serif" font-size="14" lengthAdjust="spacing" textLength="82.7257" x="69" y="322.5093">greater than</text><line style="stroke:#181818;stroke-width:1.5;" x1="156.7257" x2="156.7257" y1="317.0773" y2="317.0773"/><path d="M52,305.0773 C52,314.0773 55,317.0773 64,317.0773 " fill="transparent" style="stroke:#181818;stroke-width:1.5;"/><line style="stroke:#181818;stroke-width:1.5;" x1="52" x2="52" y1="290.0094" y2="305.0773"/><path d="M40,278.0094 C49,278.0094 52,281.0094 52,290.0094 " fill="transparent" style="stroke:#181818;stroke-width:1.5;"/><path d="M168.7257,305.0773 C168.7257,314.0773 165.7257,317.0773 156.7257,317.0773 " fill="transparent" style="stroke:#181818;stroke-width:1.5;"/><line style="stroke:#181818;stroke-width:1.5;" x1="168.7257" x2="168.7257" y1="290.0094" y2="305.0773"/><path d="M168.7257,290.0094 C168.7257,281.0094 171.7257,278.0094 180.7257,278.0094 " fill="transparent" style="stroke:#181818;stroke-width:1.5;"/><ellipse cx="14" cy="278.0094" fill="transparent" rx="4" ry="4" style="stroke:#181818;stroke-width:2;"/><ellipse cx="210.7257" cy="278.0094" fill="#181818" rx="4" ry="4" style="stroke:#181818;stroke-width:1;"/><line style="stroke:#181818;stroke-width:1.5;" x1="18" x2="40" y1="278.0094" y2="278.0094"/><line style="stroke:#181818;stroke-width:1.5;" x1="180.7257" x2="206.7257" y1="278.0094" y2="278.0094"/><path d="M191.7257,278.0094 L191.7257,275.0094 L197.7257,278.0094 L191.7257,281.0094 L191.7257,278.0094 " fill="#181818" style="stroke:#181818;stroke-width:1.5;"/><!--SRC=[LP11Qy9048Nl-ok6d1IYHArM4WfIjOKqeLAZrx99nhYGpDhDRgZG7zzDWsqwjtdlpRUFNTMQAuqfdLWcAHTQI887mC-BmhgsYmlrjKfbwVQqW7MQ3JhuONZfCBZD5qXzHlNU9Vfw5mMf7FTV9c3zhMMMzXdGPquzxY-bKCWrgiuFs0ef_wdFTYKdVOWZQ52rBM4oddhJ-TWR90OXv0JUFKoM_cpkpnQmtYRGsaCsUDv5K4kZCeHSr5g9rBJVC6GXRpYy6TAYGXzUBqZXvkKcm9OQeIHLI9g5n_WliBWRFGeDUrIs2HnZji4JDwMs5vdC1HK-79AdqP95d0h32yj6OcjfkUfglVqt]--></g></svg>