<svg xmlns="http://www.w3.org/2000/svg" xmlns:xlink="http://www.w3.org/1999/xlink" contentStyleType="text/css" data-diagram-type="EBNF" height="588px" preserveAspectRatio="none" style="width:624px;height:588px;background:#FFFFFF;" version="1.1" viewBox="0 0 624 588" width="624px" zoomAndPan="magnify"><defs/><g><text fill="#000000" font-family="sans-serif" font-size="14" font-weight="bold" lengthAdjust="spacing" textLength="72.9327" x="10" y="24.9659">conditions</text><line style="stroke:#181818;stroke-width:1.5;" x1="64" x2="64" y1="53.6019" y2="53.6019"/><rect fill="#F1F1F1" height="29.0679" rx="5" ry="5" style="stroke:#181818;stroke-width:1.5;" width="71.8518" x="64" y="39.0679"/><text fill="#000000" font-family="sans-serif" font-size="14" lengthAdjust="spacing" textLength="61.8518" x="69" y="59.0339">condition</text><line style="stroke:#181818;stroke-width:1.5;" x1="135.8518" x2="155.8518" y1="53.6019" y2="53.6019"/><rect fill="transparent" height="29.0679" style="stroke:#181818;stroke-width:0.5;" width="24.252" x="179.8518" y="39.0679"/><text fill="#000000" font-family="sans-serif" font-size="14" lengthAdjust="spacing" textLength="14.252" x="184.8518" y="59.0339">or</text><line style="stroke:#181818;stroke-width:1.5;" x1="155.8518" x2="179.8518" y1="53.6019" y2="53.6019"/><line style="stroke:#181818;stroke-width:1.5;" x1="204.1037" x2="238.9677" y1="53.6019" y2="53.6019"/><rect fill="transparent" height="29.0679" style="stroke:#181818;stroke-width:0.5;" width="35.1159" x="179.8518" y="78.1358"/><text fill="#000000" font-family="sans-serif" font-size="14" lengthAdjust="spacing" textLength="25.1159" x="184.8518" y="98.1018">and</text><line style="stroke:#181818;stroke-width:1.5;" x1="214.9677" x2="214.9677" y1="92.6698" y2="92.6698"/><path d="M167.8518,80.6698 C167.8518,89.6698 170.8518,92.6698 179.8518,92.6698 " fill="transparent" style="stroke:#181818;stroke-width:1.5;"/><line style="stroke:#181818;stroke-width:1.5;" x1="167.8518" x2="167.8518" y1="65.6019" y2="80.6698"/><path d="M155.8518,53.6019 C164.8518,53.6019 167.8518,56.6019 167.8518,65.6019 " fill="transparent" style="stroke:#181818;stroke-width:1.5;"/><path d="M226.9677,80.6698 C226.9677,89.6698 223.9677,92.6698 214.9677,92.6698 " fill="transparent" style="stroke:#181818;stroke-width:1.5;"/><line style="stroke:#181818;stroke-width:1.5;" x1="226.9677" x2="226.9677" y1="65.6019" y2="80.6698"/><path d="M226.9677,65.6019 C226.9677,56.6019 229.9677,53.6019 238.9677,53.6019 " fill="transparent" style="stroke:#181818;stroke-width:1.5;"/><line style="stroke:#181818;stroke-width:1.5;" x1="238.9677" x2="258.9677" y1="53.6019" y2="53.6019"/><rect fill="#F1F1F1" height="29.0679" rx="5" ry="5" style="stroke:#181818;stroke-width:1.5;" width="78.5577" x="258.9677" y="39.0679"/><text fill="#000000" font-family="sans-serif" font-size="14" lengthAdjust="spacing" textLength="68.5577" x="263.9677" y="59.0339">conditions</text><line style="stroke:#181818;stroke-width:1.5;" x1="40" x2="64" y1="53.6019" y2="53.6019"/><line style="stroke:#181818;stroke-width:1.5;" x1="337.5254" x2="579.847" y1="53.6019" y2="53.6019"/><line style="stroke:#181818;stroke-width:1.5;" x1="64" x2="64" y1="131.7377" y2="131.7377"/><rect fill="transparent" height="29.0679" style="stroke:#181818;stroke-width:0.5;" width="29.0679" x="64" y="117.2038"/><text fill="#000000" font-family="sans-serif" font-size="14" lengthAdjust="spacing" textLength="19.0679" x="69" y="137.1697">for</text><line style="stroke:#181818;stroke-width:1.5;" x1="93.0679" x2="113.0679" y1="131.7377" y2="131.7377"/><rect fill="transparent" height="29.0679" style="stroke:#181818;stroke-width:0.5;" width="33.6459" x="137.0679" y="117.2038"/><text fill="#000000" font-family="sans-serif" font-size="14" lengthAdjust="spacing" textLength="23.6459" x="142.0679" y="137.1697">any</text><line style="stroke:#181818;stroke-width:1.5;" x1="113.0679" x2="137.0679" y1="131.7377" y2="131.7377"/><line style="stroke:#181818;stroke-width:1.5;" x1="170.7138" x2="202.1898" y1="131.7377" y2="131.7377"/><rect fill="transparent" height="29.0679" style="stroke:#181818;stroke-width:0.5;" width="41.1219" x="137.0679" y="156.2717"/><text fill="#000000" font-family="sans-serif" font-size="14" lengthAdjust="spacing" textLength="31.1219" x="142.0679" y="176.2376">each</text><line style="stroke:#181818;stroke-width:1.5;" x1="178.1898" x2="178.1898" y1="170.8056" y2="170.8056"/><path d="M125.0679,158.8056 C125.0679,167.8056 128.0679,170.8056 137.0679,170.8056 " fill="transparent" style="stroke:#181818;stroke-width:1.5;"/><line style="stroke:#181818;stroke-width:1.5;" x1="125.0679" x2="125.0679" y1="143.7377" y2="158.8056"/><path d="M113.0679,131.7377 C122.0679,131.7377 125.0679,134.7377 125.0679,143.7377 " fill="transparent" style="stroke:#181818;stroke-width:1.5;"/><path d="M190.1898,158.8056 C190.1898,167.8056 187.1898,170.8056 178.1898,170.8056 " fill="transparent" style="stroke:#181818;stroke-width:1.5;"/><line style="stroke:#181818;stroke-width:1.5;" x1="190.1898" x2="190.1898" y1="143.7377" y2="158.8056"/><path d="M190.1898,143.7377 C190.1898,134.7377 193.1898,131.7377 202.1898,131.7377 " fill="transparent" style="stroke:#181818;stroke-width:1.5;"/><line style="stroke:#181818;stroke-width:1.5;" x1="202.1898" x2="222.1898" y1="131.7377" y2="131.7377"/><rect fill="#F1F1F1" height="29.0679" rx="5" ry="5" style="stroke:#181818;stroke-width:1.5;" width="69.5418" x="222.1898" y="117.2038"/><text fill="#000000" font-family="sans-serif" font-size="14" lengthAdjust="spacing" textLength="59.5418" x="227.1898" y="137.1697">identifier</text><line style="stroke:#181818;stroke-width:1.5;" x1="291.7316" x2="311.7316" y1="131.7377" y2="131.7377"/><rect fill="transparent" height="29.0679" style="stroke:#181818;stroke-width:0.5;" width="22.2639" x="311.7316" y="117.2038"/><text fill="#000000" font-family="sans-serif" font-size="14" lengthAdjust="spacing" textLength="12.2639" x="316.7316" y="137.1697">in</text><line style="stroke:#181818;stroke-width:1.5;" x1="333.9955" x2="353.9955" y1="131.7377" y2="131.7377"/><rect fill="#F1F1F1" height="29.0679" rx="5" ry="5" style="stroke:#181818;stroke-width:1.5;" width="69.5418" x="353.9955" y="117.2038"/><text fill="#000000" font-family="sans-serif" font-size="14" lengthAdjust="spacing" textLength="59.5418" x="358.9955" y="137.1697">identifier</text><line style="stroke:#181818;stroke-width:1.5;" x1="423.5373" x2="443.5373" y1="131.7377" y2="131.7377"/><rect fill="transparent" height="29.0679" style="stroke:#181818;stroke-width:0.5;" width="13.752" x="443.5373" y="117.2038"/><text fill="#000000" font-family="sans-serif" font-size="14" lengthAdjust="spacing" textLength="3.752" x="448.5373" y="137.1697">,</text><line style="stroke:#181818;stroke-width:1.5;" x1="457.2893" x2="477.2893" y1="131.7377" y2="131.7377"/><rect fill="#F1F1F1" height="29.0679" rx="5" ry="5" style="stroke:#181818;stroke-width:1.5;" width="78.5577" x="477.2893" y="117.2038"/><text fill="#000000" font-family="sans-serif" font-size="14" lengthAdjust="spacing" textLength="68.5577" x="482.2893" y="137.1697">conditions</text><path d="M52,119.7377 C52,128.7377 55,131.7377 64,131.7377 " fill="transparent" style="stroke:#181818;stroke-width:1.5;"/><line style="stroke:#181818;stroke-width:1.5;" x1="555.847" x2="555.847" y1="131.7377" y2="131.7377"/><path d="M567.847,119.7377 C567.847,128.7377 564.847,131.7377 555.847,131.7377 " fill="transparent" style="stroke:#181818;stroke-width:1.5;"/><rect fill="#F1F1F1" height="29.0679" rx="5" ry="5" style="stroke:#181818;stroke-width:1.5;" width="71.8518" x="64" y="195.3396"/><text fill="#000000" font-family="sans-serif" font-size="14" lengthAdjust="spacing" textLength="61.8518" x="69" y="215.3055">condition</text><line style="stroke:#181818;stroke-width:1.5;" x1="135.8518" x2="555.847" y1="209.8735" y2="209.8735"/><path d="M343.8494,209.8735 L343.8494,206.8735 L349.8494,209.8735 L343.8494,212.8735 L343.8494,209.8735 " fill="#181818" style="stroke:#181818;stroke-width:1.5;"/><path d="M52,197.8735 C52,206.8735 55,209.8735 64,209.8735 " fill="transparent" style="stroke:#181818;stroke-width:1.5;"/><line style="stroke:#181818;stroke-width:1.5;" x1="52" x2="52" y1="65.6019" y2="197.8735"/><path d="M40,53.6019 C49,53.6019 52,56.6019 52,65.6019 " fill="transparent" style="stroke:#181818;stroke-width:1.5;"/><path d="M567.847,197.8735 C567.847,206.8735 564.847,209.8735 555.847,209.8735 " fill="transparent" style="stroke:#181818;stroke-width:1.5;"/><line style="stroke:#181818;stroke-width:1.5;" x1="567.847" x2="567.847" y1="65.6019" y2="197.8735"/><path d="M567.847,65.6019 C567.847,56.6019 570.847,53.6019 579.847,53.6019 " fill="transparent" style="stroke:#181818;stroke-width:1.5;"/><ellipse cx="14" cy="53.6019" fill="transparent" rx="4" ry="4" style="stroke:#181818;stroke-width:2;"/><ellipse cx="609.847" cy="53.6019" fill="#181818" rx="4" ry="4" style="stroke:#181818;stroke-width:1;"/><line style="stroke:#181818;stroke-width:1.5;" x1="18" x2="40" y1="53.6019" y2="53.6019"/><line style="stroke:#181818;stroke-width:1.5;" x1="579.847" x2="605.847" y1="53.6019" y2="53.6019"/><path d="M590.847,53.6019 L590.847,50.6019 L596.847,53.6019 L590.847,56.6019 L590.847,53.6019 " fill="#181818" style="stroke:#181818;stroke-width:1.5;"/><text fill="#000000" font-family="sans-serif" font-size="14" font-weight="bold" lengthAdjust="spacing" textLength="65.7893" x="10" y="254.3734">condition</text><line style="stroke:#181818;stroke-width:1.5;" x1="40" x2="40" y1="283.0094" y2="283.0094"/><rect fill="#F1F1F1" height="29.0679" rx="5" ry="5" style="stroke:#181818;stroke-width:1.5;" width="81.7357" x="40" y="268.4754"/><text fill="#000000" font-family="sans-serif" font-size="14" lengthAdjust="spacing" textLength="71.7357" x="45" y="288.4414">expression</text><line style="stroke:#181818;stroke-width:1.5;" x1="121.7357" x2="141.7357" y1="283.0094" y2="283.0094"/><rect fill="#F1F1F1" height="29.0679" rx="5" ry="5" style="stroke:#181818;stroke-width:1.5;" width="57.6278" x="141.7357" y="268.4754"/><text fill="#000000" font-family="sans-serif" font-size="14" lengthAdjust="spacing" textLength="47.6278" x="146.7357" y="288.4414">symbol</text><line style="stroke:#181818;stroke-width:1.5;" x1="199.3636" x2="219.3636" y1="283.0094" y2="283.0094"/><rect fill="#F1F1F1" height="29.0679" rx="5" ry="5" style="stroke:#181818;stroke-width:1.5;" width="81.7357" x="219.3636" y="268.4754"/><text fill="#000000" font-family="sans-serif" font-size="14" lengthAdjust="spacing" textLength="71.7357" x="224.3636" y="288.4414">expression</text><ellipse cx="14" cy="283.0094" fill="transparent" rx="4" ry="4" style="stroke:#181818;stroke-width:2;"/><ellipse cx="331.0993" cy="283.0094" fill="#181818" rx="4" ry="4" style="stroke:#181818;stroke-width:1;"/><line style="stroke:#181818;stroke-width:1.5;" x1="18" x2="40" y1="283.0094" y2="283.0094"/><line style="stroke:#181818;stroke-width:1.5;" x1="301.0993" x2="327.0993" y1="283.0094" y2="283.0094"/><path d="M312.0993,283.0094 L312.0993,280.0094 L318.0993,283.0094 L312.0993,286.0094 L312.0993,283.0094 " fill="#181818" style="stroke:#181818;stroke-width:1.5;"/><text fill="#000000" font-family="sans-serif" font-size="14" font-weight="bold" lengthAdjust="spacing" textLength="50.2528" x="10" y="327.5093">symbol</text><rect fill="transparent" height="29.0679" style="stroke:#181818;stroke-width:0.5;" width="46.6239" x="64" y="341.6113"/><text fill="#000000" font-family="sans-serif" font-size="14" lengthAdjust="spacing" textLength="36.6239" x="69" y="361.5772">equal</text><line style="stroke:#181818;stroke-width:1.5;" x1="40" x2="64" y1="356.1452" y2="356.1452"/><line style="stroke:#181818;stroke-width:1.5;" x1="110.6239" x2="272.2135" y1="356.1452" y2="356.1452"/><rect fill="#F1F1F1" height="29.0679" rx="5" ry="5" style="stroke:#181818;stroke-width:1.5;" width="99.6977" x="64" y="380.6792"/><text fill="#000000" font-family="sans-serif" font-size="14" lengthAdjust="spacing" textLength="89.6977" x="69" y="400.6451">other_symbol</text><path d="M52,383.2131 C52,392.2131 55,395.2131 64,395.2131 " fill="transparent" style="stroke:#181818;stroke-width:1.5;"/><line style="stroke:#181818;stroke-width:1.5;" x1="163.6977" x2="248.2135" y1="395.2131" y2="395.2131"/><path d="M203.9556,395.2131 L203.9556,392.2131 L209.9556,395.2131 L203.9556,398.2131 L203.9556,395.2131 " fill="#181818" style="stroke:#181818;stroke-width:1.5;"/><path d="M260.2135,383.2131 C260.2135,392.2131 257.2135,395.2131 248.2135,395.2131 " fill="transparent" style="stroke:#181818;stroke-width:1.5;"/><line style="stroke:#181818;stroke-width:1.5;" x1="64" x2="64" y1="434.281" y2="434.281"/><rect fill="transparent" height="29.0679" style="stroke:#181818;stroke-width:0.5;" width="64.5158" x="64" y="419.7471"/><text fill="#000000" font-family="sans-serif" font-size="14" lengthAdjust="spacing" textLength="54.5158" x="69" y="439.713">equal or</text><line style="stroke:#181818;stroke-width:1.5;" x1="128.5158" x2="148.5158" y1="434.281" y2="434.281"/><rect fill="#F1F1F1" height="29.0679" rx="5" ry="5" style="stroke:#181818;stroke-width:1.5;" width="99.6977" x="148.5158" y="419.7471"/><text fill="#000000" font-family="sans-serif" font-size="14" lengthAdjust="spacing" textLength="89.6977" x="153.5158" y="439.713">other_symbol</text><line style="stroke:#181818;stroke-width:1.5;" x1="248.2135" x2="248.2135" y1="434.281" y2="434.281"/><path d="M52,422.281 C52,431.281 55,434.281 64,434.281 " fill="transparent" style="stroke:#181818;stroke-width:1.5;"/><line style="stroke:#181818;stroke-width:1.5;" x1="52" x2="52" y1="368.1452" y2="422.281"/><path d="M40,356.1452 C49,356.1452 52,359.1452 52,368.1452 " fill="transparent" style="stroke:#181818;stroke-width:1.5;"/><path d="M260.2135,422.281 C260.2135,431.281 257.2135,434.281 248.2135,434.281 " fill="transparent" style="stroke:#181818;stroke-width:1.5;"/><line style="stroke:#181818;stroke-width:1.5;" x1="260.2135" x2="260.2135" y1="368.1452" y2="422.281"/><path d="M260.2135,368.1452 C260.2135,359.1452 263.2135,356.1452 272.2135,356.1452 " fill="transparent" style="stroke:#181818;stroke-width:1.5;"/><ellipse cx="14" cy="356.1452" fill="transparent" rx="4" ry="4" style="stroke:#181818;stroke-width:2;"/><ellipse cx="302.2135" cy="356.1452" fill="#181818" rx="4" ry="4" style="stroke:#181818;stroke-width:1;"/><line style="stroke:#181818;stroke-width:1.5;" x1="18" x2="40" y1="356.1452" y2="356.1452"/><line style="stroke:#181818;stroke-width:1.5;" x1="272.2135" x2="298.2135" y1="356.1452" y2="356.1452"/><path d="M283.2135,356.1452 L283.2135,353.1452 L289.2135,356.1452 L283.2135,359.1452 L283.2135,356.1452 " fill="#181818" style="stroke:#181818;stroke-width:1.5;"/><text fill="#000000" font-family="sans-serif" font-size="14" font-weight="bold" lengthAdjust="spacing" textLength="94.9477" x="10" y="478.7809">other_symbol</text><rect fill="transparent" height="29.0679" style="stroke:#181818;stroke-width:0.5;" width="68.7718" x="64" y="492.8829"/><text fill="#000000" font-family="sans-serif" font-size="14" lengthAdjust="spacing" textLength="58.7718" x="69" y="512.8489">less than</text><line style="stroke:#181818;stroke-width:1.5;" x1="40" x2="64" y1="507.4169" y2="507.4169"/><line style="stroke:#181818;stroke-width:1.5;" x1="132.7718" x2="180.7257" y1="507.4169" y2="507.4169"/><rect fill="transparent" height="29.0679" style="stroke:#181818;stroke-width:0.5;" width="92.7257" x="64" y="531.9508"/><text fill="#000000" font-family="sans-serif" font-size="14" lengthAdjust="spacing" textLength="82.7257" x="69" y="551.9168">greater than</text><line style="stroke:#181818;stroke-width:1.5;" x1="156.7257" x2="156.7257" y1="546.4848" y2="546.4848"/><path d="M52,534.4848 C52,543.4848 55,546.4848 64,546.4848 " fill="transparent" style="stroke:#181818;stroke-width:1.5;"/><line style="stroke:#181818;stroke-width:1.5;" x1="52" x2="52" y1="519.4169" y2="534.4848"/><path d="M40,507.4169 C49,507.4169 52,510.4169 52,519.4169 " fill="transparent" style="stroke:#181818;stroke-width:1.5;"/><path d="M168.7257,534.4848 C168.7257,543.4848 165.7257,546.4848 156.7257,546.4848 " fill="transparent" style="stroke:#181818;stroke-width:1.5;"/><line style="stroke:#181818;stroke-width:1.5;" x1="168.7257" x2="168.7257" y1="519.4169" y2="534.4848"/><path d="M168.7257,519.4169 C168.7257,510.4169 171.7257,507.4169 180.7257,507.4169 " fill="transparent" style="stroke:#181818;stroke-width:1.5;"/><ellipse cx="14" cy="507.4169" fill="transparent" rx="4" ry="4" style="stroke:#181818;stroke-width:2;"/><ellipse cx="210.7257" cy="507.4169" fill="#181818" rx="4" ry="4" style="stroke:#181818;stroke-width:1;"/><line style="stroke:#181818;stroke-width:1.5;" x1="18" x2="40" y1="507.4169" y2="507.4169"/><line style="stroke:#181818;stroke-width:1.5;" x1="180.7257" x2="206.7257" y1="507.4169" y2="507.4169"/><path d="M191.7257,507.4169 L191.7257,504.4169 L197.7257,507.4169 L191.7257,510.4169 L191.7257,507.4169 " fill="#181818" style="stroke:#181818;stroke-width:1.5;"/><!--SRC=[rL3BRi8m4BpxAxO-WHGGZq9HeageG2jHK55vN2kJR8AbP4qT6nMf7rydKI7jeVVwPC_CZcTdd1kX3UufPg6YI1gfA8Txk3myQ72bENm25nHnQ7fNBcTGFquIEsan8UZCFpcAyC3TW8oGZ8mbQW-u9FuByVXVdXScO3UImjH6UCNQHvkbXOwDaQ9o3JR-JojThYuWVXmrvdcPC3zdUvLwDInW5UQ47D-jI3chMIfpGFrMAUfu9OLoXxecOFLNuPcwRy0S1F6VSKkNHACmg2i-g9MzIWMPxN819zH5IkYsUvtUeDrfR2p2N11qxg0xyli3lp-4oMm31TraZQVL0d9bTOWGoTnekRT53Kqs5oS1hzPrcQ4FBqUa-VJv6u0PdQHMbBcksNotl0g6jwq7QM2DsYM1tP9DCHOsDMuYL96an8Vjvh4rOWj1YHM9yqPY4-LyzTbnwoy0]--></g></svg>