<svg xmlns="http://www.w3.org/2000/svg" xmlns:xlink="http://www.w3.org/1999/xlink" contentStyleType="text/css" data-diagram-type="EBNF" height="999px" preserveAspectRatio="none" style="width:558px;height:999px;background:#FFFFFF;" version="1.1" viewBox="0 0 558 999" width="558px" zoomAndPan="magnify"><defs/><g><text fill="#000000" font-family="sans-serif" font-size="14" font-weight="bold" lengthAdjust="spacing" textLength="43.3929" x="10" y="24.9659">global</text><line style="stroke:#181818;stroke-width:1.5;" x1="40" x2="40" y1="69.6019" y2="69.6019"/><rect fill="transparent" height="29.0679" style="stroke:#181818;stroke-width:0.5;" width="50.7679" x="40" y="55.0679"/><text fill="#000000" font-family="sans-serif" font-size="14" lengthAdjust="spacing" textLength="40.7679" x="45" y="75.0339">global</text><line style="stroke:#181818;stroke-width:1.5;" x1="90.7679" x2="110.7679" y1="69.6019" y2="69.6019"/><rect fill="transparent" height="29.0679" style="stroke:#181818;stroke-width:0.5;" width="15.32" x="110.7679" y="55.0679"/><text fill="#000000" font-family="sans-serif" font-size="14" lengthAdjust="spacing" textLength="5.32" x="115.7679" y="75.0339">{</text><line style="stroke:#181818;stroke-width:1.5;" x1="126.0878" x2="146.0878" y1="69.6019" y2="69.6019"/><path d="M154.0878,61.6019 C154.0878,67.6019 152.0878,69.6019 146.0878,69.6019 " fill="transparent" style="stroke:#181818;stroke-width:1.5;"/><line style="stroke:#181818;stroke-width:1.5;" x1="154.0878" x2="154.0878" y1="52.0679" y2="61.6019"/><path d="M154.0878,52.0679 C154.0878,46.0679 156.0878,44.0679 162.0878,44.0679 " fill="transparent" style="stroke:#181818;stroke-width:1.5;"/><line style="stroke:#181818;stroke-width:1.5;" x1="162.0878" x2="233.2976" y1="44.0679" y2="44.0679"/><path d="M188.5717,44.0679 L188.5717,41.0679 L194.5717,44.0679 L188.5717,47.0679 L188.5717,44.0679 " fill="#181818" style="stroke:#181818;stroke-width:1.5;"/><path d="M241.2976,61.6019 C241.2976,67.6019 243.2976,69.6019 249.2976,69.6019 " fill="transparent" style="stroke:#181818;stroke-width:1.5;"/><line style="stroke:#181818;stroke-width:1.5;" x1="241.2976" x2="241.2976" y1="52.0679" y2="61.6019"/><path d="M233.2976,44.0679 C239.2976,44.0679 241.2976,46.0679 241.2976,52.0679 " fill="transparent" style="stroke:#181818;stroke-width:1.5;"/><line style="stroke:#181818;stroke-width:1.5;" x1="146.0878" x2="161.0878" y1="69.6019" y2="69.6019"/><line style="stroke:#181818;stroke-width:1.5;" x1="234.2976" x2="249.2976" y1="69.6019" y2="69.6019"/><rect fill="#F1F1F1" height="29.0679" rx="5" ry="5" style="stroke:#181818;stroke-width:1.5;" width="73.2097" x="161.0878" y="55.0679"/><text fill="#000000" font-family="sans-serif" font-size="14" lengthAdjust="spacing" textLength="63.2097" x="166.0878" y="75.0339">configure</text><line style="stroke:#181818;stroke-width:1.5;" x1="249.2976" x2="269.2976" y1="69.6019" y2="69.6019"/><rect fill="#F1F1F1" height="29.0679" rx="5" ry="5" style="stroke:#181818;stroke-width:1.5;" width="140.5215" x="269.2976" y="55.0679"/><text fill="#000000" font-family="sans-serif" font-size="14" lengthAdjust="spacing" textLength="130.5215" x="274.2976" y="75.0339">global_assignments</text><line style="stroke:#181818;stroke-width:1.5;" x1="409.8191" x2="429.8191" y1="69.6019" y2="69.6019"/><rect fill="transparent" height="29.0679" style="stroke:#181818;stroke-width:0.5;" width="15.32" x="429.8191" y="55.0679"/><text fill="#000000" font-family="sans-serif" font-size="14" lengthAdjust="spacing" textLength="5.32" x="434.8191" y="75.0339">}</text><ellipse cx="14" cy="69.6019" fill="transparent" rx="4" ry="4" style="stroke:#181818;stroke-width:2;"/><ellipse cx="475.1391" cy="69.6019" fill="#181818" rx="4" ry="4" style="stroke:#181818;stroke-width:1;"/><line style="stroke:#181818;stroke-width:1.5;" x1="18" x2="40" y1="69.6019" y2="69.6019"/><line style="stroke:#181818;stroke-width:1.5;" x1="445.1391" x2="471.1391" y1="69.6019" y2="69.6019"/><path d="M456.1391,69.6019 L456.1391,66.6019 L462.1391,69.6019 L456.1391,72.6019 L456.1391,69.6019 " fill="#181818" style="stroke:#181818;stroke-width:1.5;"/><text fill="#000000" font-family="sans-serif" font-size="14" font-weight="bold" lengthAdjust="spacing" textLength="67.1472" x="10" y="114.1018">configure</text><line style="stroke:#181818;stroke-width:1.5;" x1="40" x2="40" y1="142.7377" y2="142.7377"/><rect fill="transparent" height="29.0679" style="stroke:#181818;stroke-width:0.5;" width="30.1459" x="40" y="128.2038"/><text fill="#000000" font-family="sans-serif" font-size="14" lengthAdjust="spacing" textLength="20.1459" x="45" y="148.1697">cfg</text><line style="stroke:#181818;stroke-width:1.5;" x1="70.1459" x2="90.1459" y1="142.7377" y2="142.7377"/><rect fill="transparent" height="29.0679" style="stroke:#181818;stroke-width:0.5;" width="15.32" x="90.1459" y="128.2038"/><text fill="#000000" font-family="sans-serif" font-size="14" lengthAdjust="spacing" textLength="5.32" x="95.1459" y="148.1697">{</text><line style="stroke:#181818;stroke-width:1.5;" x1="105.4659" x2="125.4659" y1="142.7377" y2="142.7377"/><rect fill="transparent" height="29.0679" style="stroke:#181818;stroke-width:0.5;" width="15.32" x="125.4659" y="128.2038"/><text fill="#000000" font-family="sans-serif" font-size="14" lengthAdjust="spacing" textLength="5.32" x="130.4659" y="148.1697">}</text><ellipse cx="14" cy="142.7377" fill="transparent" rx="4" ry="4" style="stroke:#181818;stroke-width:2;"/><ellipse cx="170.7859" cy="142.7377" fill="#181818" rx="4" ry="4" style="stroke:#181818;stroke-width:1;"/><line style="stroke:#181818;stroke-width:1.5;" x1="18" x2="40" y1="142.7377" y2="142.7377"/><line style="stroke:#181818;stroke-width:1.5;" x1="140.7859" x2="166.7859" y1="142.7377" y2="142.7377"/><path d="M151.7859,142.7377 L151.7859,139.7377 L157.7859,142.7377 L151.7859,145.7377 L151.7859,142.7377 " fill="#181818" style="stroke:#181818;stroke-width:1.5;"/><text fill="#000000" font-family="sans-serif" font-size="14" font-weight="bold" lengthAdjust="spacing" textLength="138.3965" x="10" y="187.2376">global_assignments</text><line style="stroke:#181818;stroke-width:1.5;" x1="64" x2="64" y1="231.8735" y2="231.8735"/><path d="M72,223.8735 C72,229.8735 70,231.8735 64,231.8735 " fill="transparent" style="stroke:#181818;stroke-width:1.5;"/><line style="stroke:#181818;stroke-width:1.5;" x1="72" x2="72" y1="214.3396" y2="223.8735"/><path d="M72,214.3396 C72,208.3396 74,206.3396 80,206.3396 " fill="transparent" style="stroke:#181818;stroke-width:1.5;"/><line style="stroke:#181818;stroke-width:1.5;" x1="80" x2="198.8516" y1="206.3396" y2="206.3396"/><path d="M125.5406,206.3396 L125.5406,203.3396 L131.5406,206.3396 L125.5406,209.3396 L125.5406,206.3396 " fill="#181818" style="stroke:#181818;stroke-width:1.5;"/><path d="M206.8516,223.8735 C206.8516,229.8735 208.8516,231.8735 214.8516,231.8735 " fill="transparent" style="stroke:#181818;stroke-width:1.5;"/><line style="stroke:#181818;stroke-width:1.5;" x1="206.8516" x2="206.8516" y1="214.3396" y2="223.8735"/><path d="M198.8516,206.3396 C204.8516,206.3396 206.8516,208.3396 206.8516,214.3396 " fill="transparent" style="stroke:#181818;stroke-width:1.5;"/><line style="stroke:#181818;stroke-width:1.5;" x1="64" x2="79" y1="231.8735" y2="231.8735"/><line style="stroke:#181818;stroke-width:1.5;" x1="199.8516" x2="214.8516" y1="231.8735" y2="231.8735"/><rect fill="#F1F1F1" height="29.0679" rx="5" ry="5" style="stroke:#181818;stroke-width:1.5;" width="120.8516" x="79" y="217.3396"/><text fill="#000000" font-family="sans-serif" font-size="14" lengthAdjust="spacing" textLength="110.8516" x="84" y="237.3055">global_constants</text><line style="stroke:#181818;stroke-width:1.5;" x1="214.8516" x2="234.8516" y1="231.8735" y2="231.8735"/><path d="M242.8516,223.8735 C242.8516,229.8735 240.8516,231.8735 234.8516,231.8735 " fill="transparent" style="stroke:#181818;stroke-width:1.5;"/><line style="stroke:#181818;stroke-width:1.5;" x1="242.8516" x2="242.8516" y1="214.3396" y2="223.8735"/><path d="M242.8516,214.3396 C242.8516,208.3396 244.8516,206.3396 250.8516,206.3396 " fill="transparent" style="stroke:#181818;stroke-width:1.5;"/><line style="stroke:#181818;stroke-width:1.5;" x1="250.8516" x2="364.8732" y1="206.3396" y2="206.3396"/><path d="M294.4602,206.3396 L294.4602,203.3396 L300.4602,206.3396 L294.4602,209.3396 L294.4602,206.3396 " fill="#181818" style="stroke:#181818;stroke-width:1.5;"/><path d="M372.8732,223.8735 C372.8732,229.8735 374.8732,231.8735 380.8732,231.8735 " fill="transparent" style="stroke:#181818;stroke-width:1.5;"/><line style="stroke:#181818;stroke-width:1.5;" x1="372.8732" x2="372.8732" y1="214.3396" y2="223.8735"/><path d="M364.8732,206.3396 C370.8732,206.3396 372.8732,208.3396 372.8732,214.3396 " fill="transparent" style="stroke:#181818;stroke-width:1.5;"/><line style="stroke:#181818;stroke-width:1.5;" x1="234.8516" x2="249.8516" y1="231.8735" y2="231.8735"/><line style="stroke:#181818;stroke-width:1.5;" x1="365.8732" x2="380.8732" y1="231.8735" y2="231.8735"/><rect fill="#F1F1F1" height="29.0679" rx="5" ry="5" style="stroke:#181818;stroke-width:1.5;" width="116.0216" x="249.8516" y="217.3396"/><text fill="#000000" font-family="sans-serif" font-size="14" lengthAdjust="spacing" textLength="106.0216" x="254.8516" y="237.3055">global_variables</text><line style="stroke:#181818;stroke-width:1.5;" x1="40" x2="64" y1="231.8735" y2="231.8735"/><line style="stroke:#181818;stroke-width:1.5;" x1="380.8732" x2="404.8732" y1="231.8735" y2="231.8735"/><line style="stroke:#181818;stroke-width:1.5;" x1="64" x2="64" y1="286.9415" y2="286.9415"/><path d="M72,278.9415 C72,284.9415 70,286.9415 64,286.9415 " fill="transparent" style="stroke:#181818;stroke-width:1.5;"/><line style="stroke:#181818;stroke-width:1.5;" x1="72" x2="72" y1="269.4075" y2="278.9415"/><path d="M72,269.4075 C72,263.4075 74,261.4075 80,261.4075 " fill="transparent" style="stroke:#181818;stroke-width:1.5;"/><line style="stroke:#181818;stroke-width:1.5;" x1="80" x2="194.0216" y1="261.4075" y2="261.4075"/><path d="M123.6086,261.4075 L123.6086,258.4075 L129.6086,261.4075 L123.6086,264.4075 L123.6086,261.4075 " fill="#181818" style="stroke:#181818;stroke-width:1.5;"/><path d="M202.0216,278.9415 C202.0216,284.9415 204.0216,286.9415 210.0216,286.9415 " fill="transparent" style="stroke:#181818;stroke-width:1.5;"/><line style="stroke:#181818;stroke-width:1.5;" x1="202.0216" x2="202.0216" y1="269.4075" y2="278.9415"/><path d="M194.0216,261.4075 C200.0216,261.4075 202.0216,263.4075 202.0216,269.4075 " fill="transparent" style="stroke:#181818;stroke-width:1.5;"/><line style="stroke:#181818;stroke-width:1.5;" x1="64" x2="79" y1="286.9415" y2="286.9415"/><line style="stroke:#181818;stroke-width:1.5;" x1="195.0216" x2="210.0216" y1="286.9415" y2="286.9415"/><rect fill="#F1F1F1" height="29.0679" rx="5" ry="5" style="stroke:#181818;stroke-width:1.5;" width="116.0216" x="79" y="272.4075"/><text fill="#000000" font-family="sans-serif" font-size="14" lengthAdjust="spacing" textLength="106.0216" x="84" y="292.3734">global_variables</text><line style="stroke:#181818;stroke-width:1.5;" x1="210.0216" x2="230.0216" y1="286.9415" y2="286.9415"/><path d="M238.0216,278.9415 C238.0216,284.9415 236.0216,286.9415 230.0216,286.9415 " fill="transparent" style="stroke:#181818;stroke-width:1.5;"/><line style="stroke:#181818;stroke-width:1.5;" x1="238.0216" x2="238.0216" y1="269.4075" y2="278.9415"/><path d="M238.0216,269.4075 C238.0216,263.4075 240.0216,261.4075 246.0216,261.4075 " fill="transparent" style="stroke:#181818;stroke-width:1.5;"/><line style="stroke:#181818;stroke-width:1.5;" x1="246.0216" x2="364.8732" y1="261.4075" y2="261.4075"/><path d="M291.5622,261.4075 L291.5622,258.4075 L297.5622,261.4075 L291.5622,264.4075 L291.5622,261.4075 " fill="#181818" style="stroke:#181818;stroke-width:1.5;"/><path d="M372.8732,278.9415 C372.8732,284.9415 374.8732,286.9415 380.8732,286.9415 " fill="transparent" style="stroke:#181818;stroke-width:1.5;"/><line style="stroke:#181818;stroke-width:1.5;" x1="372.8732" x2="372.8732" y1="269.4075" y2="278.9415"/><path d="M364.8732,261.4075 C370.8732,261.4075 372.8732,263.4075 372.8732,269.4075 " fill="transparent" style="stroke:#181818;stroke-width:1.5;"/><line style="stroke:#181818;stroke-width:1.5;" x1="230.0216" x2="245.0216" y1="286.9415" y2="286.9415"/><line style="stroke:#181818;stroke-width:1.5;" x1="365.8732" x2="380.8732" y1="286.9415" y2="286.9415"/><rect fill="#F1F1F1" height="29.0679" rx="5" ry="5" style="stroke:#181818;stroke-width:1.5;" width="120.8516" x="245.0216" y="272.4075"/><text fill="#000000" font-family="sans-serif" font-size="14" lengthAdjust="spacing" textLength="110.8516" x="250.0216" y="292.3734">global_constants</text><line style="stroke:#181818;stroke-width:1.5;" x1="380.8732" x2="380.8732" y1="286.9415" y2="286.9415"/><path d="M52,274.9415 C52,283.9415 55,286.9415 64,286.9415 " fill="transparent" style="stroke:#181818;stroke-width:1.5;"/><line style="stroke:#181818;stroke-width:1.5;" x1="52" x2="52" y1="243.8735" y2="274.9415"/><path d="M40,231.8735 C49,231.8735 52,234.8735 52,243.8735 " fill="transparent" style="stroke:#181818;stroke-width:1.5;"/><path d="M392.8732,274.9415 C392.8732,283.9415 389.8732,286.9415 380.8732,286.9415 " fill="transparent" style="stroke:#181818;stroke-width:1.5;"/><line style="stroke:#181818;stroke-width:1.5;" x1="392.8732" x2="392.8732" y1="243.8735" y2="274.9415"/><path d="M392.8732,243.8735 C392.8732,234.8735 395.8732,231.8735 404.8732,231.8735 " fill="transparent" style="stroke:#181818;stroke-width:1.5;"/><ellipse cx="14" cy="231.8735" fill="transparent" rx="4" ry="4" style="stroke:#181818;stroke-width:2;"/><ellipse cx="434.8732" cy="231.8735" fill="#181818" rx="4" ry="4" style="stroke:#181818;stroke-width:1;"/><line style="stroke:#181818;stroke-width:1.5;" x1="18" x2="40" y1="231.8735" y2="231.8735"/><line style="stroke:#181818;stroke-width:1.5;" x1="404.8732" x2="430.8732" y1="231.8735" y2="231.8735"/><path d="M415.8732,231.8735 L415.8732,228.8735 L421.8732,231.8735 L415.8732,234.8735 L415.8732,231.8735 " fill="#181818" style="stroke:#181818;stroke-width:1.5;"/><text fill="#000000" font-family="sans-serif" font-size="14" font-weight="bold" lengthAdjust="spacing" textLength="113.0216" x="10" y="331.4414">global_variables</text><path d="M48,384.0773 C48,390.0773 46,392.0773 40,392.0773 " fill="transparent" style="stroke:#181818;stroke-width:1.5;"/><line style="stroke:#181818;stroke-width:1.5;" x1="48" x2="48" y1="358.5433" y2="384.0773"/><path d="M48,358.5433 C48,352.5433 50,350.5433 56,350.5433 " fill="transparent" style="stroke:#181818;stroke-width:1.5;"/><line style="stroke:#181818;stroke-width:1.5;" x1="56" x2="305.6315" y1="350.5433" y2="350.5433"/><path d="M153.8526,350.5433 L153.8526,347.5433 L159.8526,350.5433 L153.8526,353.5433 L153.8526,350.5433 " fill="#181818" style="stroke:#181818;stroke-width:1.5;"/><path d="M313.6315,384.0773 C313.6315,390.0773 315.6315,392.0773 321.6315,392.0773 " fill="transparent" style="stroke:#181818;stroke-width:1.5;"/><line style="stroke:#181818;stroke-width:1.5;" x1="313.6315" x2="313.6315" y1="358.5433" y2="384.0773"/><path d="M305.6315,350.5433 C311.6315,350.5433 313.6315,352.5433 313.6315,358.5433 " fill="transparent" style="stroke:#181818;stroke-width:1.5;"/><line style="stroke:#181818;stroke-width:1.5;" x1="40" x2="55" y1="392.0773" y2="392.0773"/><line style="stroke:#181818;stroke-width:1.5;" x1="306.6315" x2="321.6315" y1="392.0773" y2="392.0773"/><line style="stroke:#181818;stroke-width:1.5;" x1="55" x2="55" y1="392.0773" y2="392.0773"/><rect fill="transparent" height="29.0679" style="stroke:#181818;stroke-width:0.5;" width="37.4539" x="55" y="377.5433"/><text fill="#000000" font-family="sans-serif" font-size="14" lengthAdjust="spacing" textLength="27.4539" x="60" y="397.5093">vars</text><line style="stroke:#181818;stroke-width:1.5;" x1="92.4539" x2="112.4539" y1="392.0773" y2="392.0773"/><rect fill="transparent" height="29.0679" style="stroke:#181818;stroke-width:0.5;" width="15.32" x="112.4539" y="377.5433"/><text fill="#000000" font-family="sans-serif" font-size="14" lengthAdjust="spacing" textLength="5.32" x="117.4539" y="397.5093">{</text><line style="stroke:#181818;stroke-width:1.5;" x1="127.7739" x2="147.7739" y1="392.0773" y2="392.0773"/><path d="M155.7739,384.0773 C155.7739,390.0773 153.7739,392.0773 147.7739,392.0773 " fill="transparent" style="stroke:#181818;stroke-width:1.5;"/><line style="stroke:#181818;stroke-width:1.5;" x1="155.7739" x2="155.7739" y1="374.5433" y2="384.0773"/><path d="M155.7739,374.5433 C155.7739,368.5433 157.7739,366.5433 163.7739,366.5433 " fill="transparent" style="stroke:#181818;stroke-width:1.5;"/><line style="stroke:#181818;stroke-width:1.5;" x1="163.7739" x2="255.3116" y1="366.5433" y2="366.5433"/><path d="M198.389,366.5433 L198.389,363.5433 L204.389,366.5433 L198.389,369.5433 L198.389,366.5433 " fill="#181818" style="stroke:#181818;stroke-width:1.5;"/><path d="M263.3116,384.0773 C263.3116,390.0773 265.3116,392.0773 271.3116,392.0773 " fill="transparent" style="stroke:#181818;stroke-width:1.5;"/><line style="stroke:#181818;stroke-width:1.5;" x1="263.3116" x2="263.3116" y1="374.5433" y2="384.0773"/><path d="M255.3116,366.5433 C261.3116,366.5433 263.3116,368.5433 263.3116,374.5433 " fill="transparent" style="stroke:#181818;stroke-width:1.5;"/><line style="stroke:#181818;stroke-width:1.5;" x1="147.7739" x2="162.7739" y1="392.0773" y2="392.0773"/><line style="stroke:#181818;stroke-width:1.5;" x1="256.3116" x2="271.3116" y1="392.0773" y2="392.0773"/><rect fill="#F1F1F1" height="29.0679" rx="5" ry="5" style="stroke:#181818;stroke-width:1.5;" width="93.5377" x="162.7739" y="377.5433"/><text fill="#000000" font-family="sans-serif" font-size="14" lengthAdjust="spacing" textLength="83.5377" x="167.7739" y="397.5093">assignments</text><line style="stroke:#181818;stroke-width:1.5;" x1="271.3116" x2="291.3116" y1="392.0773" y2="392.0773"/><rect fill="transparent" height="29.0679" style="stroke:#181818;stroke-width:0.5;" width="15.32" x="291.3116" y="377.5433"/><text fill="#000000" font-family="sans-serif" font-size="14" lengthAdjust="spacing" textLength="5.32" x="296.3116" y="397.5093">}</text><ellipse cx="14" cy="392.0773" fill="transparent" rx="4" ry="4" style="stroke:#181818;stroke-width:2;"/><ellipse cx="351.6315" cy="392.0773" fill="#181818" rx="4" ry="4" style="stroke:#181818;stroke-width:1;"/><line style="stroke:#181818;stroke-width:1.5;" x1="18" x2="40" y1="392.0773" y2="392.0773"/><line style="stroke:#181818;stroke-width:1.5;" x1="321.6315" x2="347.6315" y1="392.0773" y2="392.0773"/><path d="M332.6315,392.0773 L332.6315,389.0773 L338.6315,392.0773 L332.6315,395.0773 L332.6315,392.0773 " fill="#181818" style="stroke:#181818;stroke-width:1.5;"/><text fill="#000000" font-family="sans-serif" font-size="14" font-weight="bold" lengthAdjust="spacing" textLength="117.8516" x="10" y="436.5772">global_constants</text><path d="M48,489.2131 C48,495.2131 46,497.2131 40,497.2131 " fill="transparent" style="stroke:#181818;stroke-width:1.5;"/><line style="stroke:#181818;stroke-width:1.5;" x1="48" x2="48" y1="463.6792" y2="489.2131"/><path d="M48,463.6792 C48,457.6792 50,455.6792 56,455.6792 " fill="transparent" style="stroke:#181818;stroke-width:1.5;"/><line style="stroke:#181818;stroke-width:1.5;" x1="56" x2="413.4591" y1="455.6792" y2="455.6792"/><path d="M196.9836,455.6792 L196.9836,452.6792 L202.9836,455.6792 L196.9836,458.6792 L196.9836,455.6792 " fill="#181818" style="stroke:#181818;stroke-width:1.5;"/><path d="M421.4591,489.2131 C421.4591,495.2131 423.4591,497.2131 429.4591,497.2131 " fill="transparent" style="stroke:#181818;stroke-width:1.5;"/><line style="stroke:#181818;stroke-width:1.5;" x1="421.4591" x2="421.4591" y1="463.6792" y2="489.2131"/><path d="M413.4591,455.6792 C419.4591,455.6792 421.4591,457.6792 421.4591,463.6792 " fill="transparent" style="stroke:#181818;stroke-width:1.5;"/><line style="stroke:#181818;stroke-width:1.5;" x1="40" x2="55" y1="497.2131" y2="497.2131"/><line style="stroke:#181818;stroke-width:1.5;" x1="414.4591" x2="429.4591" y1="497.2131" y2="497.2131"/><line style="stroke:#181818;stroke-width:1.5;" x1="55" x2="55" y1="497.2131" y2="497.2131"/><rect fill="transparent" height="29.0679" style="stroke:#181818;stroke-width:0.5;" width="52.3078" x="55" y="482.6792"/><text fill="#000000" font-family="sans-serif" font-size="14" lengthAdjust="spacing" textLength="42.3078" x="60" y="502.6451">consts</text><line style="stroke:#181818;stroke-width:1.5;" x1="107.3078" x2="127.3078" y1="497.2131" y2="497.2131"/><rect fill="transparent" height="29.0679" style="stroke:#181818;stroke-width:0.5;" width="15.32" x="127.3078" y="482.6792"/><text fill="#000000" font-family="sans-serif" font-size="14" lengthAdjust="spacing" textLength="5.32" x="132.3078" y="502.6451">{</text><line style="stroke:#181818;stroke-width:1.5;" x1="142.6278" x2="162.6278" y1="497.2131" y2="497.2131"/><path d="M170.6278,489.2131 C170.6278,495.2131 168.6278,497.2131 162.6278,497.2131 " fill="transparent" style="stroke:#181818;stroke-width:1.5;"/><line style="stroke:#181818;stroke-width:1.5;" x1="170.6278" x2="170.6278" y1="479.6792" y2="489.2131"/><path d="M170.6278,479.6792 C170.6278,473.6792 172.6278,471.6792 178.6278,471.6792 " fill="transparent" style="stroke:#181818;stroke-width:1.5;"/><line style="stroke:#181818;stroke-width:1.5;" x1="178.6278" x2="363.1391" y1="471.6792" y2="471.6792"/><path d="M250.4324,471.6792 L250.4324,468.6792 L256.4324,471.6792 L250.4324,474.6792 L250.4324,471.6792 " fill="#181818" style="stroke:#181818;stroke-width:1.5;"/><path d="M371.1391,489.2131 C371.1391,495.2131 373.1391,497.2131 379.1391,497.2131 " fill="transparent" style="stroke:#181818;stroke-width:1.5;"/><line style="stroke:#181818;stroke-width:1.5;" x1="371.1391" x2="371.1391" y1="479.6792" y2="489.2131"/><path d="M363.1391,471.6792 C369.1391,471.6792 371.1391,473.6792 371.1391,479.6792 " fill="transparent" style="stroke:#181818;stroke-width:1.5;"/><line style="stroke:#181818;stroke-width:1.5;" x1="162.6278" x2="177.6278" y1="497.2131" y2="497.2131"/><line style="stroke:#181818;stroke-width:1.5;" x1="364.1391" x2="379.1391" y1="497.2131" y2="497.2131"/><rect fill="#F1F1F1" height="29.0679" rx="5" ry="5" style="stroke:#181818;stroke-width:1.5;" width="186.5113" x="177.6278" y="482.6792"/><text fill="#000000" font-family="sans-serif" font-size="14" lengthAdjust="spacing" textLength="176.5113" x="182.6278" y="502.6451">non_mutable_assignments</text><line style="stroke:#181818;stroke-width:1.5;" x1="379.1391" x2="399.1391" y1="497.2131" y2="497.2131"/><rect fill="transparent" height="29.0679" style="stroke:#181818;stroke-width:0.5;" width="15.32" x="399.1391" y="482.6792"/><text fill="#000000" font-family="sans-serif" font-size="14" lengthAdjust="spacing" textLength="5.32" x="404.1391" y="502.6451">}</text><ellipse cx="14" cy="497.2131" fill="transparent" rx="4" ry="4" style="stroke:#181818;stroke-width:2;"/><ellipse cx="459.4591" cy="497.2131" fill="#181818" rx="4" ry="4" style="stroke:#181818;stroke-width:1;"/><line style="stroke:#181818;stroke-width:1.5;" x1="18" x2="40" y1="497.2131" y2="497.2131"/><line style="stroke:#181818;stroke-width:1.5;" x1="429.4591" x2="455.4591" y1="497.2131" y2="497.2131"/><path d="M440.4591,497.2131 L440.4591,494.2131 L446.4591,497.2131 L440.4591,500.2131 L440.4591,497.2131 " fill="#181818" style="stroke:#181818;stroke-width:1.5;"/><text fill="#000000" font-family="sans-serif" font-size="14" font-weight="bold" lengthAdjust="spacing" textLength="186.5738" x="10" y="541.713">non_mutable_assignments</text><line style="stroke:#181818;stroke-width:1.5;" x1="40" x2="40" y1="598.349" y2="598.349"/><rect fill="#F1F1F1" height="29.0679" rx="5" ry="5" style="stroke:#181818;stroke-width:1.5;" width="179.8053" x="40" y="583.815"/><text fill="#000000" font-family="sans-serif" font-size="14" lengthAdjust="spacing" textLength="169.8053" x="45" y="603.7809">non_mutable_assignment</text><line style="stroke:#181818;stroke-width:1.5;" x1="219.8053" x2="239.8053" y1="598.349" y2="598.349"/><path d="M247.8053,590.349 C247.8053,596.349 245.8053,598.349 239.8053,598.349 " fill="transparent" style="stroke:#181818;stroke-width:1.5;"/><line style="stroke:#181818;stroke-width:1.5;" x1="247.8053" x2="247.8053" y1="568.815" y2="590.349"/><path d="M247.8053,568.815 C247.8053,562.815 249.8053,560.815 255.8053,560.815 " fill="transparent" style="stroke:#181818;stroke-width:1.5;"/><line style="stroke:#181818;stroke-width:1.5;" x1="255.8053" x2="497.3627" y1="560.815" y2="560.815"/><path d="M350.4283,560.815 L350.4283,557.815 L356.4283,560.815 L350.4283,563.815 L350.4283,560.815 " fill="#181818" style="stroke:#181818;stroke-width:1.5;"/><path d="M505.3627,590.349 C505.3627,596.349 507.3627,598.349 513.3627,598.349 " fill="transparent" style="stroke:#181818;stroke-width:1.5;"/><line style="stroke:#181818;stroke-width:1.5;" x1="505.3627" x2="505.3627" y1="568.815" y2="590.349"/><path d="M497.3627,560.815 C503.3627,560.815 505.3627,562.815 505.3627,568.815 " fill="transparent" style="stroke:#181818;stroke-width:1.5;"/><line style="stroke:#181818;stroke-width:1.5;" x1="239.8053" x2="254.8053" y1="598.349" y2="598.349"/><line style="stroke:#181818;stroke-width:1.5;" x1="498.3627" x2="513.3627" y1="598.349" y2="598.349"/><path d="M262.8053,590.349 C262.8053,596.349 264.8053,598.349 270.8053,598.349 " fill="transparent" style="stroke:#181818;stroke-width:1.5;"/><line style="stroke:#181818;stroke-width:1.5;" x1="262.8053" x2="262.8053" y1="584.815" y2="590.349"/><path d="M262.8053,584.815 C262.8053,578.815 264.8053,576.815 270.8053,576.815 " fill="transparent" style="stroke:#181818;stroke-width:1.5;"/><line style="stroke:#181818;stroke-width:1.5;" x1="269.8053" x2="483.3627" y1="576.815" y2="576.815"/><path d="M395.9397,576.815 L395.9397,573.815 L389.9397,576.815 L395.9397,579.815 L395.9397,576.815 " fill="#181818" style="stroke:#181818;stroke-width:1.5;"/><path d="M490.3627,590.349 C490.3627,596.349 488.3627,598.349 482.3627,598.349 " fill="transparent" style="stroke:#181818;stroke-width:1.5;"/><line style="stroke:#181818;stroke-width:1.5;" x1="490.3627" x2="490.3627" y1="584.815" y2="590.349"/><path d="M482.3627,576.815 C488.3627,576.815 490.3627,578.815 490.3627,584.815 " fill="transparent" style="stroke:#181818;stroke-width:1.5;"/><line style="stroke:#181818;stroke-width:1.5;" x1="254.8053" x2="269.8053" y1="598.349" y2="598.349"/><line style="stroke:#181818;stroke-width:1.5;" x1="483.3627" x2="498.3627" y1="598.349" y2="598.349"/><line style="stroke:#181818;stroke-width:1.5;" x1="269.8053" x2="269.8053" y1="598.349" y2="598.349"/><rect fill="transparent" height="29.0679" style="stroke:#181818;stroke-width:0.5;" width="13.752" x="269.8053" y="583.815"/><text fill="#000000" font-family="sans-serif" font-size="14" lengthAdjust="spacing" textLength="3.752" x="274.8053" y="603.7809">,</text><line style="stroke:#181818;stroke-width:1.5;" x1="283.5573" x2="303.5573" y1="598.349" y2="598.349"/><rect fill="#F1F1F1" height="29.0679" rx="5" ry="5" style="stroke:#181818;stroke-width:1.5;" width="179.8053" x="303.5573" y="583.815"/><text fill="#000000" font-family="sans-serif" font-size="14" lengthAdjust="spacing" textLength="169.8053" x="308.5573" y="603.7809">non_mutable_assignment</text><ellipse cx="14" cy="598.349" fill="transparent" rx="4" ry="4" style="stroke:#181818;stroke-width:2;"/><ellipse cx="543.3627" cy="598.349" fill="#181818" rx="4" ry="4" style="stroke:#181818;stroke-width:1;"/><line style="stroke:#181818;stroke-width:1.5;" x1="18" x2="40" y1="598.349" y2="598.349"/><line style="stroke:#181818;stroke-width:1.5;" x1="513.3627" x2="539.3627" y1="598.349" y2="598.349"/><path d="M524.3627,598.349 L524.3627,595.349 L530.3627,598.349 L524.3627,601.349 L524.3627,598.349 " fill="#181818" style="stroke:#181818;stroke-width:1.5;"/><text fill="#000000" font-family="sans-serif" font-size="14" font-weight="bold" lengthAdjust="spacing" textLength="88.3502" x="10" y="642.8489">assignments</text><path d="M48,691.4848 C48,697.4848 46,699.4848 40,699.4848 " fill="transparent" style="stroke:#181818;stroke-width:1.5;"/><line style="stroke:#181818;stroke-width:1.5;" x1="48" x2="48" y1="669.9508" y2="691.4848"/><path d="M48,669.9508 C48,663.9508 50,661.9508 56,661.9508 " fill="transparent" style="stroke:#181818;stroke-width:1.5;"/><line style="stroke:#181818;stroke-width:1.5;" x1="56" x2="170.8317" y1="661.9508" y2="661.9508"/><path d="M99.9327,661.9508 L99.9327,658.9508 L105.9327,661.9508 L99.9327,664.9508 L99.9327,661.9508 " fill="#181818" style="stroke:#181818;stroke-width:1.5;"/><path d="M178.8317,691.4848 C178.8317,697.4848 180.8317,699.4848 186.8317,699.4848 " fill="transparent" style="stroke:#181818;stroke-width:1.5;"/><line style="stroke:#181818;stroke-width:1.5;" x1="178.8317" x2="178.8317" y1="669.9508" y2="691.4848"/><path d="M170.8317,661.9508 C176.8317,661.9508 178.8317,663.9508 178.8317,669.9508 " fill="transparent" style="stroke:#181818;stroke-width:1.5;"/><line style="stroke:#181818;stroke-width:1.5;" x1="40" x2="55" y1="699.4848" y2="699.4848"/><line style="stroke:#181818;stroke-width:1.5;" x1="171.8317" x2="186.8317" y1="699.4848" y2="699.4848"/><path d="M63,691.4848 C63,697.4848 65,699.4848 71,699.4848 " fill="transparent" style="stroke:#181818;stroke-width:1.5;"/><line style="stroke:#181818;stroke-width:1.5;" x1="63" x2="63" y1="685.9508" y2="691.4848"/><path d="M63,685.9508 C63,679.9508 65,677.9508 71,677.9508 " fill="transparent" style="stroke:#181818;stroke-width:1.5;"/><line style="stroke:#181818;stroke-width:1.5;" x1="70" x2="156.8317" y1="677.9508" y2="677.9508"/><path d="M120.099,677.9508 L120.099,674.9508 L114.099,677.9508 L120.099,680.9508 L120.099,677.9508 " fill="#181818" style="stroke:#181818;stroke-width:1.5;"/><path d="M163.8317,691.4848 C163.8317,697.4848 161.8317,699.4848 155.8317,699.4848 " fill="transparent" style="stroke:#181818;stroke-width:1.5;"/><line style="stroke:#181818;stroke-width:1.5;" x1="163.8317" x2="163.8317" y1="685.9508" y2="691.4848"/><path d="M155.8317,677.9508 C161.8317,677.9508 163.8317,679.9508 163.8317,685.9508 " fill="transparent" style="stroke:#181818;stroke-width:1.5;"/><line style="stroke:#181818;stroke-width:1.5;" x1="55" x2="70" y1="699.4848" y2="699.4848"/><line style="stroke:#181818;stroke-width:1.5;" x1="156.8317" x2="171.8317" y1="699.4848" y2="699.4848"/><rect fill="#F1F1F1" height="29.0679" rx="5" ry="5" style="stroke:#181818;stroke-width:1.5;" width="86.8317" x="70" y="684.9508"/><text fill="#000000" font-family="sans-serif" font-size="14" lengthAdjust="spacing" textLength="76.8317" x="75" y="704.9168">assignment</text><ellipse cx="14" cy="699.4848" fill="transparent" rx="4" ry="4" style="stroke:#181818;stroke-width:2;"/><ellipse cx="216.8317" cy="699.4848" fill="#181818" rx="4" ry="4" style="stroke:#181818;stroke-width:1;"/><line style="stroke:#181818;stroke-width:1.5;" x1="18" x2="40" y1="699.4848" y2="699.4848"/><line style="stroke:#181818;stroke-width:1.5;" x1="186.8317" x2="212.8317" y1="699.4848" y2="699.4848"/><path d="M197.8317,699.4848 L197.8317,696.4848 L203.8317,699.4848 L197.8317,702.4848 L197.8317,699.4848 " fill="#181818" style="stroke:#181818;stroke-width:1.5;"/><text fill="#000000" font-family="sans-serif" font-size="14" font-weight="bold" lengthAdjust="spacing" textLength="81.2067" x="10" y="743.9847">assignment</text><rect fill="#F1F1F1" height="29.0679" rx="5" ry="5" style="stroke:#181818;stroke-width:1.5;" width="179.8053" x="64" y="758.0867"/><text fill="#000000" font-family="sans-serif" font-size="14" lengthAdjust="spacing" textLength="169.8053" x="69" y="778.0526">non_mutable_assignment</text><line style="stroke:#181818;stroke-width:1.5;" x1="40" x2="64" y1="772.6206" y2="772.6206"/><line style="stroke:#181818;stroke-width:1.5;" x1="243.8053" x2="267.8053" y1="772.6206" y2="772.6206"/><rect fill="#F1F1F1" height="29.0679" rx="5" ry="5" style="stroke:#181818;stroke-width:1.5;" width="147.8155" x="64" y="797.1546"/><text fill="#000000" font-family="sans-serif" font-size="14" lengthAdjust="spacing" textLength="137.8155" x="69" y="817.1205">mutable_assignment</text><line style="stroke:#181818;stroke-width:1.5;" x1="211.8155" x2="243.8053" y1="811.6885" y2="811.6885"/><path d="M225.8104,811.6885 L225.8104,808.6885 L231.8104,811.6885 L225.8104,814.6885 L225.8104,811.6885 " fill="#181818" style="stroke:#181818;stroke-width:1.5;"/><path d="M52,799.6885 C52,808.6885 55,811.6885 64,811.6885 " fill="transparent" style="stroke:#181818;stroke-width:1.5;"/><line style="stroke:#181818;stroke-width:1.5;" x1="52" x2="52" y1="784.6206" y2="799.6885"/><path d="M40,772.6206 C49,772.6206 52,775.6206 52,784.6206 " fill="transparent" style="stroke:#181818;stroke-width:1.5;"/><path d="M255.8053,799.6885 C255.8053,808.6885 252.8053,811.6885 243.8053,811.6885 " fill="transparent" style="stroke:#181818;stroke-width:1.5;"/><line style="stroke:#181818;stroke-width:1.5;" x1="255.8053" x2="255.8053" y1="784.6206" y2="799.6885"/><path d="M255.8053,784.6206 C255.8053,775.6206 258.8053,772.6206 267.8053,772.6206 " fill="transparent" style="stroke:#181818;stroke-width:1.5;"/><ellipse cx="14" cy="772.6206" fill="transparent" rx="4" ry="4" style="stroke:#181818;stroke-width:2;"/><ellipse cx="297.8053" cy="772.6206" fill="#181818" rx="4" ry="4" style="stroke:#181818;stroke-width:1;"/><line style="stroke:#181818;stroke-width:1.5;" x1="18" x2="40" y1="772.6206" y2="772.6206"/><line style="stroke:#181818;stroke-width:1.5;" x1="267.8053" x2="293.8053" y1="772.6206" y2="772.6206"/><path d="M278.8053,772.6206 L278.8053,769.6206 L284.8053,772.6206 L278.8053,775.6206 L278.8053,772.6206 " fill="#181818" style="stroke:#181818;stroke-width:1.5;"/><text fill="#000000" font-family="sans-serif" font-size="14" font-weight="bold" lengthAdjust="spacing" textLength="179.4303" x="10" y="856.1884">non_mutable_assignment</text><line style="stroke:#181818;stroke-width:1.5;" x1="40" x2="40" y1="884.8244" y2="884.8244"/><rect fill="#F1F1F1" height="29.0679" rx="5" ry="5" style="stroke:#181818;stroke-width:1.5;" width="69.5418" x="40" y="870.2904"/><text fill="#000000" font-family="sans-serif" font-size="14" lengthAdjust="spacing" textLength="59.5418" x="45" y="890.2564">identifier</text><line style="stroke:#181818;stroke-width:1.5;" x1="109.5418" x2="129.5418" y1="884.8244" y2="884.8244"/><rect fill="transparent" height="29.0679" style="stroke:#181818;stroke-width:0.5;" width="18.008" x="129.5418" y="870.2904"/><text fill="#000000" font-family="sans-serif" font-size="14" lengthAdjust="spacing" textLength="8.008" x="134.5418" y="890.2564">=</text><line style="stroke:#181818;stroke-width:1.5;" x1="147.5497" x2="167.5497" y1="884.8244" y2="884.8244"/><rect fill="#F1F1F1" height="29.0679" rx="5" ry="5" style="stroke:#181818;stroke-width:1.5;" width="81.7357" x="167.5497" y="870.2904"/><text fill="#000000" font-family="sans-serif" font-size="14" lengthAdjust="spacing" textLength="71.7357" x="172.5497" y="890.2564">expression</text><ellipse cx="14" cy="884.8244" fill="transparent" rx="4" ry="4" style="stroke:#181818;stroke-width:2;"/><ellipse cx="279.2855" cy="884.8244" fill="#181818" rx="4" ry="4" style="stroke:#181818;stroke-width:1;"/><line style="stroke:#181818;stroke-width:1.5;" x1="18" x2="40" y1="884.8244" y2="884.8244"/><line style="stroke:#181818;stroke-width:1.5;" x1="249.2855" x2="275.2855" y1="884.8244" y2="884.8244"/><path d="M260.2855,884.8244 L260.2855,881.8244 L266.2855,884.8244 L260.2855,887.8244 L260.2855,884.8244 " fill="#181818" style="stroke:#181818;stroke-width:1.5;"/><text fill="#000000" font-family="sans-serif" font-size="14" font-weight="bold" lengthAdjust="spacing" textLength="145.6905" x="10" y="929.3243">mutable_assignment</text><line style="stroke:#181818;stroke-width:1.5;" x1="40" x2="40" y1="957.9602" y2="957.9602"/><rect fill="transparent" height="29.0679" style="stroke:#181818;stroke-width:0.5;" width="36.7959" x="40" y="943.4263"/><text fill="#000000" font-family="sans-serif" font-size="14" lengthAdjust="spacing" textLength="26.7959" x="45" y="963.3922">mut</text><line style="stroke:#181818;stroke-width:1.5;" x1="76.7959" x2="96.7959" y1="957.9602" y2="957.9602"/><rect fill="#F1F1F1" height="29.0679" rx="5" ry="5" style="stroke:#181818;stroke-width:1.5;" width="179.8053" x="96.7959" y="943.4263"/><text fill="#000000" font-family="sans-serif" font-size="14" lengthAdjust="spacing" textLength="169.8053" x="101.7959" y="963.3922">non_mutable_assignment</text><ellipse cx="14" cy="957.9602" fill="transparent" rx="4" ry="4" style="stroke:#181818;stroke-width:2;"/><ellipse cx="306.6012" cy="957.9602" fill="#181818" rx="4" ry="4" style="stroke:#181818;stroke-width:1;"/><line style="stroke:#181818;stroke-width:1.5;" x1="18" x2="40" y1="957.9602" y2="957.9602"/><line style="stroke:#181818;stroke-width:1.5;" x1="276.6012" x2="302.6012" y1="957.9602" y2="957.9602"/><path d="M287.6012,957.9602 L287.6012,954.9602 L293.6012,957.9602 L287.6012,960.9602 L287.6012,957.9602 " fill="#181818" style="stroke:#181818;stroke-width:1.5;"/><!--SRC=[xP9DJuD048Rl-oj6JZL1hDQF1jAaQgkn5ZNzkZGDsS90Dg5Bix14e_vtXrPjhN0myIW7bfrtvjbtPsYd6LSPpcN8eZYPynXQOAo_31EC5tfD_KI68j8APoR0MlDucef8Bb1cAPZ6c-6mFI7zM0S8VXXPIxs8MKbg2wOVKOBIqHGZw6SivqhmUOpf35vBWcP9iSDsquep3DgbN_wt3123pCuSOBkaLTbgjocKYVGMEYkmNWc4LUY4AbTC82o1ozMteeUX3304z-BstXjqxplTmQQlbdMuILvtU0zb84BMfcKrGjR-it5-PHK46YaPBymNqlzSVplNxv2N2gsI3mosdbVucL7bcP0Ye5M40XLThqKkyMcfa38IwR3I2eEYbRTnjlwsnvWwF7RxaACgU71a7TUFJwrwRQGHUbn2_HoEcdRZr6wSmLLt18MypsetZtr84wryX42acH9pdL7zFklndCD0a-45sl2mHDdht7q6e2jpePAL3TQRk9k4ivE3Iv7141KvWOdBEXXo7MTKuIU1a94Duz7rGPFrkOmqZuYDabqbn5NFf0tV0G00]--></g></svg>